<svg xmlns="http://www.w3.org/2000/svg" xmlns:xlink="http://www.w3.org/1999/xlink" width="60" zoomAndPan="magnify" viewBox="0 0 45 44.999999" height="60" preserveAspectRatio="xMidYMid meet" version="1.0"><path fill="#3d5a98" d="M 42.511719 44.996094 C 43.882812 44.996094 44.996094 43.886719 44.996094 42.511719 L 44.996094 2.484375 C 44.996094 1.113281 43.882812 0 42.511719 0 L 2.484375 0 C 1.113281 0 0 1.113281 0 2.484375 L 0 42.511719 C 0 43.882812 1.113281 44.996094 2.484375 44.996094 Z M 42.511719 44.996094 " fill-opacity="1" fill-rule="nonzero"/><path fill="#ffffff" d="M 31.046875 44.996094 L 31.046875 27.570312 L 36.894531 27.570312 L 37.769531 20.78125 L 31.046875 20.78125 L 31.046875 16.445312 C 31.046875 14.480469 31.59375 13.140625 34.414062 13.140625 L 38.007812 13.136719 L 38.007812 7.0625 C 37.386719 6.980469 35.25 6.796875 32.769531 6.796875 C 27.582031 6.796875 24.035156 9.960938 24.035156 15.773438 L 24.035156 20.78125 L 18.171875 20.78125 L 18.171875 27.570312 L 24.035156 27.570312 L 24.035156 44.996094 Z M 31.046875 44.996094 " fill-opacity="1" fill-rule="nonzero"/></svg>