<svg xmlns="http://www.w3.org/2000/svg" xmlns:xlink="http://www.w3.org/1999/xlink" width="60" zoomAndPan="magnify" viewBox="0 0 45 44.999999" height="60" preserveAspectRatio="xMidYMid meet" version="1.0"><path fill="#38b6ff" d="M 45 22.5 C 45 23.238281 44.964844 23.972656 44.890625 24.707031 C 44.820312 25.4375 44.710938 26.167969 44.566406 26.890625 C 44.425781 27.613281 44.246094 28.328125 44.03125 29.03125 C 43.816406 29.738281 43.570312 30.429688 43.289062 31.109375 C 43.003906 31.792969 42.691406 32.457031 42.34375 33.105469 C 41.996094 33.757812 41.617188 34.386719 41.207031 35 C 40.796875 35.613281 40.359375 36.203125 39.894531 36.773438 C 39.425781 37.34375 38.929688 37.890625 38.410156 38.410156 C 37.890625 38.929688 37.34375 39.425781 36.773438 39.894531 C 36.203125 40.359375 35.613281 40.796875 35 41.207031 C 34.386719 41.617188 33.757812 41.996094 33.105469 42.34375 C 32.457031 42.691406 31.792969 43.003906 31.109375 43.289062 C 30.429688 43.570312 29.738281 43.816406 29.03125 44.03125 C 28.328125 44.246094 27.613281 44.425781 26.890625 44.566406 C 26.167969 44.710938 25.4375 44.820312 24.707031 44.890625 C 23.972656 44.964844 23.238281 45 22.5 45 C 21.761719 45 21.027344 44.964844 20.292969 44.890625 C 19.5625 44.820312 18.832031 44.710938 18.109375 44.566406 C 17.386719 44.425781 16.671875 44.246094 15.96875 44.03125 C 15.261719 43.816406 14.570312 43.570312 13.890625 43.289062 C 13.207031 43.003906 12.542969 42.691406 11.894531 42.34375 C 11.242188 41.996094 10.613281 41.617188 10 41.207031 C 9.386719 40.796875 8.796875 40.359375 8.226562 39.894531 C 7.65625 39.425781 7.109375 38.929688 6.589844 38.410156 C 6.070312 37.890625 5.574219 37.34375 5.105469 36.773438 C 4.640625 36.203125 4.203125 35.613281 3.792969 35 C 3.382812 34.386719 3.003906 33.757812 2.65625 33.105469 C 2.308594 32.457031 1.996094 31.792969 1.710938 31.109375 C 1.429688 30.429688 1.183594 29.738281 0.96875 29.03125 C 0.753906 28.328125 0.574219 27.613281 0.433594 26.890625 C 0.289062 26.167969 0.179688 25.4375 0.109375 24.707031 C 0.0351562 23.972656 0 23.238281 0 22.5 C 0 21.761719 0.0351562 21.027344 0.109375 20.292969 C 0.179688 19.5625 0.289062 18.832031 0.433594 18.109375 C 0.574219 17.386719 0.753906 16.671875 0.96875 15.96875 C 1.183594 15.261719 1.429688 14.570312 1.710938 13.890625 C 1.996094 13.207031 2.308594 12.542969 2.65625 11.894531 C 3.003906 11.242188 3.382812 10.613281 3.792969 10 C 4.203125 9.386719 4.640625 8.796875 5.105469 8.226562 C 5.574219 7.65625 6.070312 7.109375 6.589844 6.589844 C 7.109375 6.070312 7.65625 5.574219 8.226562 5.105469 C 8.796875 4.640625 9.386719 4.203125 10 3.792969 C 10.613281 3.382812 11.242188 3.003906 11.894531 2.65625 C 12.542969 2.308594 13.207031 1.996094 13.890625 1.710938 C 14.570312 1.429688 15.261719 1.183594 15.96875 0.96875 C 16.671875 0.753906 17.386719 0.574219 18.109375 0.433594 C 18.832031 0.289062 19.5625 0.179688 20.292969 0.109375 C 21.027344 0.0351562 21.761719 0 22.5 0 C 23.238281 0 23.972656 0.0351562 24.707031 0.109375 C 25.4375 0.179688 26.167969 0.289062 26.890625 0.433594 C 27.613281 0.574219 28.328125 0.753906 29.03125 0.96875 C 29.738281 1.183594 30.429688 1.429688 31.109375 1.710938 C 31.792969 1.996094 32.457031 2.308594 33.105469 2.65625 C 33.757812 3.003906 34.386719 3.382812 35 3.792969 C 35.613281 4.203125 36.203125 4.640625 36.773438 5.105469 C 37.34375 5.574219 37.890625 6.070312 38.410156 6.589844 C 38.929688 7.109375 39.425781 7.65625 39.894531 8.226562 C 40.359375 8.796875 40.796875 9.386719 41.207031 10 C 41.617188 10.613281 41.996094 11.242188 42.34375 11.894531 C 42.691406 12.542969 43.003906 13.207031 43.289062 13.890625 C 43.570312 14.570312 43.816406 15.261719 44.03125 15.96875 C 44.246094 16.671875 44.425781 17.386719 44.566406 18.109375 C 44.710938 18.832031 44.820312 19.5625 44.890625 20.292969 C 44.964844 21.027344 45 21.761719 45 22.5 Z M 45 22.5 " fill-opacity="1" fill-rule="nonzero"/><path fill="#ffffff" d="M 20.929688 23.914062 C 17.214844 20.355469 17.789062 18.679688 17.789062 18.679688 C 19.308594 17.214844 19.097656 15.277344 19.097656 15.277344 C 18.3125 14.234375 17.527344 13.1875 16.746094 12.140625 C 16.746094 12.140625 15.699219 10.414062 14.074219 11.355469 C 9.734375 13.917969 11.09375 18.3125 11.09375 18.3125 C 11.09375 18.367188 12.296875 22.082031 17.789062 27.210938 C 23.285156 32.390625 27.261719 33.75 27.261719 33.75 C 27.261719 33.75 31.761719 35.214844 33.90625 31.082031 C 34.691406 29.511719 32.914062 28.308594 32.914062 28.308594 C 31.8125 27.417969 30.714844 26.582031 29.617188 25.746094 C 29.617188 25.746094 27.628906 25.429688 26.265625 26.949219 C 26.265625 27 24.59375 27.472656 20.929688 23.914062 Z M 20.929688 23.914062 " fill-opacity="1" fill-rule="nonzero"/></svg>