<svg xmlns="http://www.w3.org/2000/svg" xmlns:xlink="http://www.w3.org/1999/xlink" width="500" zoomAndPan="magnify" viewBox="0 0 375 374.999991" height="500" preserveAspectRatio="xMidYMid meet" version="1.0"><defs><clipPath id="36d983ed0f"><path d="M 251 53 L 363.484375 53 L 363.484375 131 L 251 131 Z M 251 53 " clip-rule="nonzero"/></clipPath><clipPath id="ae5796911a"><path d="M 242 45 L 363.484375 45 L 363.484375 139 L 242 139 Z M 242 45 " clip-rule="nonzero"/></clipPath><clipPath id="e9fa3f1c50"><path d="M 4.234375 62 L 103 62 L 103 128 L 4.234375 128 Z M 4.234375 62 " clip-rule="nonzero"/></clipPath><clipPath id="1c0b2ec7d9"><path d="M 4.234375 54 L 111 54 L 111 136 L 4.234375 136 Z M 4.234375 54 " clip-rule="nonzero"/></clipPath></defs><path stroke-linecap="butt" transform="matrix(0.393483, 0, 0, 0.393791, -12.881332, -9.415226)" fill-opacity="1" fill="#cfedff" fill-rule="nonzero" stroke-linejoin="miter" d="M 202.643582 335.553305 L 291.056713 309.335799 L 326.427921 392.41246 L 450.81783 297.640589 L 471.546173 403.641448 L 374.406886 467.642715 C 310.405151 507.32112 249.411408 484.823465 231.671203 430.325176 L 196.131229 326.070167 " stroke="#1d2b47" stroke-width="1.48" stroke-opacity="1" stroke-miterlimit="10"/><path stroke-linecap="butt" transform="matrix(0.393483, 0, 0, 0.393791, -12.881332, -9.415226)" fill-opacity="1" fill="#1d2b47" fill-rule="nonzero" stroke-linejoin="miter" d="M 205.879904 309.30604 C 204.956658 309.663146 204.073123 310.099609 203.229297 310.625347 C 202.38547 311.151086 201.601208 311.756182 200.886438 312.430715 C 200.16174 313.115167 199.516461 313.859137 198.940674 314.662625 C 198.364887 315.466113 197.868518 316.329118 197.461496 317.231802 C 197.054474 318.134486 196.736799 319.066928 196.518396 320.029129 C 196.290067 321.00125 196.170939 321.973371 196.141156 322.965331 C 196.111374 323.957291 196.170939 324.949252 196.339704 325.921372 C 196.498542 326.903413 196.756653 327.855695 197.114038 328.778218 C 197.461496 329.71066 197.8983 330.593505 198.424451 331.436671 C 198.950601 332.269917 199.556171 333.053566 200.231232 333.777697 C 200.91622 334.501828 201.660773 335.146602 202.464889 335.721939 C 203.278933 336.297275 204.132687 336.793255 205.036077 337.199959 C 205.939468 337.606663 206.87264 337.92409 207.835595 338.142321 C 208.808477 338.370472 209.781359 338.489507 210.774095 338.519266 C 211.766832 338.549025 212.749642 338.489507 213.732451 338.320874 C 214.705333 338.16216 215.65836 337.904251 216.591533 337.547145 L 238.590578 329.2246 L 229.943841 300.219686 Z M 205.879904 309.30604 " stroke="#1d2b47" stroke-width="1.48" stroke-opacity="1" stroke-miterlimit="10"/><path stroke-linecap="butt" transform="matrix(0.393483, 0, 0, 0.393791, -12.881332, -9.415226)" fill-opacity="1" fill="#fc9797" fill-rule="nonzero" stroke-linejoin="miter" d="M 279.223291 281.521237 L 268.074858 255.32357 L 222.269987 274.48824 L 229.933914 300.189927 L 238.580651 329.2246 L 291.056713 309.335799 Z M 279.223291 281.521237 " stroke="#1d2b47" stroke-width="1.48" stroke-opacity="1" stroke-miterlimit="10"/><path stroke-linecap="round" transform="matrix(0.393483, 0, 0, 0.393791, -12.881332, -9.415226)" fill-opacity="1" fill="#cfedff" fill-rule="nonzero" stroke-linejoin="miter" d="M 573.9966 266.840227 L 574.691516 268.586077 C 576.776263 273.893064 578.185949 279.358764 578.940429 285.003017 C 579.694909 290.64727 579.764401 296.301443 579.148904 301.965535 C 578.52348 307.629628 577.242849 313.125087 575.287158 318.481672 C 573.331467 323.828337 570.770206 328.867494 567.593449 333.589224 L 566.302891 335.523547 L 508.843291 333.152762 L 523.654922 269.76651 Z M 573.9966 266.840227 " stroke="#1d2b47" stroke-width="1.48" stroke-opacity="1" stroke-miterlimit="10"/><path stroke-linecap="butt" transform="matrix(0.393483, 0, 0, 0.393791, -12.881332, -9.415226)" fill-opacity="1" fill="#a7d7fc" fill-rule="nonzero" stroke-linejoin="miter" d="M 486.953446 253.805871 L 560.95204 253.805871 C 561.805794 253.805871 562.64962 253.895148 563.483519 254.063781 C 564.327345 254.222495 565.131462 254.470485 565.925651 254.797832 C 566.709913 255.125178 567.464393 255.521962 568.169236 255.998103 C 568.884006 256.474244 569.539213 257.009903 570.144782 257.614998 C 570.750351 258.220094 571.286429 258.874788 571.762943 259.588999 C 572.229529 260.293291 572.636551 261.04718 572.964154 261.830829 C 573.291757 262.624397 573.530014 263.437804 573.698779 264.271051 C 573.867545 265.114217 573.946964 265.957383 573.946964 266.810469 C 573.946964 267.663554 573.867545 268.506721 573.698779 269.349887 C 573.530014 270.183133 573.291757 270.99654 572.964154 271.780189 C 572.636551 272.573757 572.229529 273.317727 571.762943 274.031938 C 571.286429 274.74615 570.750351 275.400843 570.144782 276.005939 C 569.539213 276.601115 568.884006 277.146693 568.169236 277.622834 C 567.464393 278.089055 566.709913 278.495759 565.925651 278.823106 C 565.131462 279.150453 564.327345 279.398443 563.483519 279.557156 C 562.64962 279.72579 561.805794 279.805146 560.95204 279.805146 L 486.953446 279.805146 Z M 486.953446 253.805871 " stroke="#1d2b47" stroke-width="1.48" stroke-opacity="1" stroke-miterlimit="10"/><path stroke-linecap="butt" transform="matrix(0.393483, 0, 0, 0.393791, -12.881332, -9.415226)" fill-opacity="1" fill="#ffffff" fill-rule="nonzero" stroke-linejoin="miter" d="M 481.384193 697.995696 L 513.112058 403.998554 C 513.112058 403.998554 479.607195 410.337179 419.725317 460.639477 C 364.340536 580.22027 359.585327 779.832406 364.340536 879.921182 L 485.057319 855.003144 Z M 481.384193 697.995696 " stroke="#1d2b47" stroke-width="1.48" stroke-opacity="1" stroke-miterlimit="10"/><path stroke-linecap="butt" transform="matrix(0.393483, 0, 0, 0.393791, -12.881332, -9.415226)" fill-opacity="1" fill="#1d2b47" fill-rule="nonzero" stroke-linejoin="miter" d="M 383.113187 859.288412 C 381.822629 859.347929 380.561854 859.516563 379.311006 859.82407 C 378.070085 860.131578 376.858946 860.548201 375.697444 861.08386 C 374.535942 861.629438 373.434004 862.274212 372.391631 863.038021 C 371.359185 863.791911 370.406157 864.644996 369.542476 865.587359 C 368.668868 866.529721 367.904461 867.55144 367.2294 868.652515 C 366.564266 869.743671 366.008334 870.894345 365.57153 872.104537 C 365.134725 873.304808 364.807122 874.544758 364.618502 875.814467 C 364.419955 877.084176 364.350463 878.353885 364.4001 879.643433 C 364.449737 880.923062 364.62843 882.182851 364.936178 883.432721 C 365.233999 884.682591 365.660876 885.882863 366.196954 887.053376 C 366.742959 888.213969 367.388238 889.315045 368.142718 890.346683 C 368.907125 891.388241 369.750951 892.340523 370.694051 893.203528 C 371.647078 894.076453 372.65967 894.840263 373.761607 895.514795 C 374.853618 896.179409 376.005192 896.734906 377.216331 897.171369 C 378.417543 897.617751 379.658463 897.935178 380.919239 898.123651 C 382.189942 898.322043 383.470572 898.39148 384.751203 898.341882 L 404.566227 897.508635 C 403.950731 887.122813 403.216105 873.890065 402.491408 858.514683 Z M 383.113187 859.288412 " stroke="#1d2b47" stroke-width="1.48" stroke-opacity="1" stroke-miterlimit="10"/><path stroke-linecap="butt" transform="matrix(0.393483, 0, 0, 0.393791, -12.881332, -9.415226)" fill-opacity="1" fill="#fc9797" fill-rule="nonzero" stroke-linejoin="miter" d="M 487.747636 969.733252 L 486.000419 894.086373 L 485.057319 855.003144 L 402.491408 858.465085 C 403.216105 873.890065 403.950731 887.122813 404.566227 897.468957 C 404.675428 899.234646 404.784629 900.911059 404.883903 902.468436 C 404.973249 903.896859 404.943467 905.325281 404.784629 906.743784 C 404.625791 908.162287 404.347825 909.560951 403.950731 910.929856 C 403.553636 912.30868 403.037413 913.637907 402.411989 914.917536 C 401.786565 916.207084 401.051939 917.427195 400.208113 918.577868 C 399.364287 919.738462 398.431114 920.809779 397.408596 921.811658 C 396.376149 922.803618 395.274212 923.696383 394.092855 924.49987 C 392.911498 925.303358 391.670578 925.99773 390.360165 926.592906 C 389.05968 927.178163 387.719485 927.644384 386.329654 928.00149 L 362.414627 934.121884 C 359.406635 934.895612 356.527698 936.006608 353.777818 937.44495 C 351.027937 938.893212 348.486531 940.629142 346.143672 942.66266 C 343.800814 944.696178 341.716067 946.977687 339.909286 949.497265 C 338.092578 952.016844 336.593545 954.714976 335.412189 957.58174 L 328.185065 975.00056 Z M 487.747636 969.733252 " stroke="#1d2b47" stroke-width="1.48" stroke-opacity="1" stroke-miterlimit="10"/><path stroke-linecap="butt" transform="matrix(0.393483, 0, 0, 0.393791, -12.881332, -9.415226)" fill-opacity="1" fill="#ffffff" fill-rule="nonzero" stroke-linejoin="miter" d="M 452.773522 509.939895 C 452.048824 517.478792 451.413472 525.49383 450.907177 533.856054 C 448.326061 577.194792 449.596764 630.165462 463.256821 677.313327 C 481.62245 740.67974 528.410131 815.314819 556.256396 851.442007 L 647.538535 770.190553 L 567.454466 644.380251 L 570.740424 574.665293 C 571.62396 555.927167 570.809916 537.268397 568.26851 518.679064 C 565.737031 500.099651 561.527827 481.897182 555.650826 464.081579 L 462.065537 446.305653 " stroke="#1d2b47" stroke-width="1.48" stroke-opacity="1" stroke-miterlimit="10"/><path stroke-linecap="butt" transform="matrix(0.393483, 0, 0, 0.393791, -12.881332, -9.415226)" fill-opacity="1" fill="#1d2b47" fill-rule="nonzero" stroke-linejoin="miter" d="M 452.773522 509.939895 C 452.048824 517.478792 451.413472 525.49383 450.907177 533.856054 C 448.326061 577.194792 449.596764 630.165462 463.256821 677.313327 C 468.250287 694.017935 474.365545 710.305921 481.62245 726.167363 L 482.903081 763.088119 C 482.903081 763.088119 435.896998 686.994858 438.378839 604.453856 C 440.860681 521.912854 452.773522 509.939895 452.773522 509.939895 Z M 452.773522 509.939895 " stroke="#1d2b47" stroke-width="1.48" stroke-opacity="1" stroke-miterlimit="10"/><path stroke-linecap="butt" transform="matrix(0.393483, 0, 0, 0.393791, -12.881332, -9.415226)" fill-opacity="1" fill="#1d2b47" fill-rule="nonzero" stroke-linejoin="miter" d="M 562.302162 824.272219 C 561.220079 824.956672 560.207488 825.75024 559.284242 826.633084 C 558.35107 827.525849 557.517171 828.48805 556.782546 829.539528 C 556.047921 830.591005 555.422497 831.71192 554.896346 832.882433 C 554.380123 834.062866 553.983028 835.273057 553.705062 836.522927 C 553.427096 837.782716 553.268258 839.052425 553.248403 840.332054 C 553.218621 841.621602 553.307968 842.891311 553.536297 844.16102 C 553.754699 845.420809 554.102157 846.65084 554.568743 847.851111 C 555.035329 849.051383 555.611117 850.182218 556.296105 851.273374 C 556.991021 852.35461 557.775283 853.35649 558.668746 854.288933 C 559.552281 855.221375 560.525163 856.054622 561.577464 856.788672 C 562.619838 857.522723 563.74163 858.147658 564.91306 858.673396 C 566.084489 859.189216 567.305555 859.586 568.556403 859.863749 C 569.807252 860.141497 571.077954 860.300211 572.358585 860.32997 C 573.649143 860.349809 574.919846 860.260533 576.190549 860.032382 C 577.451324 859.814151 578.682318 859.466965 579.883529 859.000743 C 581.074813 858.534522 582.21646 857.959185 583.298543 857.274733 L 598.298795 847.751915 C 591.806297 838.883792 584.112587 828.130944 575.624689 815.840558 Z M 562.302162 824.272219 " stroke="#1d2b47" stroke-width="1.48" stroke-opacity="1" stroke-miterlimit="10"/><path stroke-linecap="butt" transform="matrix(0.393483, 0, 0, 0.393791, -12.881332, -9.415226)" fill-opacity="1" fill="#fc9797" fill-rule="nonzero" stroke-linejoin="miter" d="M 696.003941 869.803189 L 682.99909 828.934432 L 647.528608 770.190553 L 575.525415 815.850478 C 584.023241 828.140864 591.716951 838.854033 598.209449 847.761835 C 611.214299 865.527841 619.404377 875.764869 619.404377 875.764869 L 601.227368 946.194038 Z M 696.003941 869.803189 " stroke="#1d2b47" stroke-width="1.48" stroke-opacity="1" stroke-miterlimit="10"/><path stroke-linecap="butt" transform="matrix(0.393483, 0, 0, 0.393791, -12.881332, -9.415226)" fill-opacity="1" fill="#fcb332" fill-rule="nonzero" stroke-linejoin="miter" d="M 434.149781 891.090653 C 433.832105 889.503517 433.246391 888.025497 432.412492 886.636752 C 431.578593 885.248008 430.536219 884.047736 429.285371 883.026018 C 428.034523 882.004299 426.644692 881.22065 425.115877 880.675072 C 423.59699 880.139414 422.028466 879.871584 420.410305 879.871584 L 403.573491 879.871584 C 403.920948 886.408602 404.258479 892.310764 404.566227 897.508635 L 404.566227 897.964937 C 404.675428 899.690948 404.625791 901.416958 404.427244 903.142969 C 404.218769 904.85906 403.871312 906.555312 403.374943 908.211885 C 402.868648 909.868458 402.233296 911.475434 401.449034 913.022892 C 400.664772 914.570349 399.751454 916.03845 398.709081 917.417275 C 397.666707 918.806019 396.505205 920.085648 395.234502 921.26608 C 393.973727 922.446513 392.60375 923.50791 391.154354 924.450272 C 389.695031 925.392634 388.166217 926.196122 386.567911 926.870655 C 384.969605 927.535268 383.321662 928.061007 381.634009 928.437952 L 363.258453 932.564506 C 361.124069 933.040647 359.029395 933.675501 356.984357 934.46907 C 354.93932 935.262638 352.963773 936.19508 351.057719 937.286236 C 349.151665 938.367473 347.334956 939.587584 345.607594 940.946569 C 343.880233 942.295635 342.271999 943.773656 340.763039 945.370711 C 339.25408 946.957848 337.874176 948.664019 336.623327 950.459467 C 335.372479 952.254915 334.250687 954.139639 333.277805 956.10372 C 332.304923 958.067801 331.480951 960.0914 330.80589 962.184435 C 330.130829 964.267552 329.614606 966.400266 329.257221 968.562739 L 328.185065 975.00056 L 487.747636 969.733252 L 486.318095 908.886418 L 455.999916 908.886418 C 454.729213 908.896338 453.45851 908.787222 452.207662 908.568991 C 450.946886 908.360679 449.715893 908.033332 448.514681 907.606789 C 447.31347 907.180247 446.161895 906.654508 445.05003 906.029573 C 443.938165 905.404638 442.885864 904.690427 441.903055 903.886939 C 440.910318 903.083451 439.997 902.200607 439.163101 901.238405 C 438.329203 900.276204 437.574723 899.254485 436.919516 898.163329 C 436.254383 897.072173 435.69845 895.931419 435.231864 894.741067 C 434.765278 893.560634 434.407893 892.340523 434.149781 891.090653 Z M 434.149781 891.090653 " stroke="#1d2b47" stroke-width="1.48" stroke-opacity="1" stroke-miterlimit="10"/><path stroke-linecap="butt" transform="matrix(0.393483, 0, 0, 0.393791, -12.881332, -9.415226)" fill-opacity="1" fill="#ffffff" fill-rule="nonzero" stroke-linejoin="miter" d="M 372.629888 930.461551 L 363.288235 932.564506 C 361.153851 933.040647 359.059177 933.675501 357.014139 934.46907 C 354.969102 935.262638 352.993556 936.205 351.087501 937.286236 C 349.181447 938.367473 347.364738 939.587584 345.637377 940.946569 C 343.919942 942.305555 342.301781 943.773656 340.792821 945.370711 C 339.293789 946.967767 337.913885 948.664019 336.653109 950.459467 C 335.402261 952.264834 334.290396 954.139639 333.307587 956.10372 C 332.334705 958.067801 331.510733 960.101319 330.835672 962.184435 C 330.160611 964.267552 329.644388 966.400266 329.287003 968.562739 L 328.185065 975.00056 L 487.747636 969.733252 L 486.953446 943.247917 L 467.356824 943.684379 C 463.832608 944.180359 460.774979 945.64846 458.193864 948.098602 L 454.451247 951.62998 C 451.363835 954.546342 447.69071 956.064041 443.451724 956.202916 L 382.338853 958.305871 C 381.713428 958.33563 381.078077 958.295952 380.46258 958.186836 C 379.837156 958.08764 379.231587 957.919007 378.635945 957.690856 C 378.05023 957.462705 377.48437 957.184956 376.95822 956.84769 C 376.422142 956.500504 375.925773 956.113639 375.479042 955.677177 C 375.022383 955.240715 374.615361 954.754654 374.257976 954.238835 C 373.900591 953.713096 373.592842 953.167518 373.344658 952.582261 C 373.106401 952.006925 372.917781 951.401829 372.788725 950.786814 C 372.65967 950.161879 372.600105 949.536944 372.600105 948.912009 Z M 372.629888 930.461551 " stroke="#1d2b47" stroke-width="1.48" stroke-opacity="1" stroke-miterlimit="10"/><path stroke-linecap="butt" transform="matrix(0.393483, 0, 0, 0.393791, -12.881332, -9.415226)" fill="none" stroke-linejoin="miter" d="M 434.2292 891.130332 C 434.2292 891.130332 454.371828 939.855413 372.629888 939.131282 " stroke="#1d2b47" stroke-width="1.48" stroke-opacity="1" stroke-miterlimit="10"/><path stroke-linecap="round" transform="matrix(0.393483, 0, 0, 0.393791, -12.881332, -9.415226)" fill="none" stroke-linejoin="miter" d="M 383.788248 922.76394 C 383.788248 922.76394 392.147091 919.321838 396.157747 929.122404 " stroke="#1d2b47" stroke-width="1.48" stroke-opacity="1" stroke-miterlimit="10"/><path stroke-linecap="round" transform="matrix(0.393483, 0, 0, 0.393791, -12.881332, -9.415226)" fill="none" stroke-linejoin="miter" d="M 388.900842 916.217003 C 388.900842 916.217003 397.269613 912.784821 401.280269 922.575468 " stroke="#1d2b47" stroke-width="1.48" stroke-opacity="1" stroke-miterlimit="10"/><path stroke-linecap="round" transform="matrix(0.393483, 0, 0, 0.393791, -12.881332, -9.415226)" fill="none" stroke-linejoin="miter" d="M 394.003509 909.689906 C 394.003509 909.689906 402.362352 906.247804 406.382935 916.03845 " stroke="#1d2b47" stroke-width="1.48" stroke-opacity="1" stroke-miterlimit="10"/><path stroke-linecap="round" transform="matrix(0.393483, 0, 0, 0.393791, -12.881332, -9.415226)" fill="none" stroke-linejoin="miter" d="M 384.999387 910.721544 C 384.999387 910.721544 374.565724 886.587154 368.1725 894.383961 C 361.769348 902.170848 374.962819 912.636027 376.064757 907.299282 C 377.156767 901.962536 364.668139 897.994696 360.061841 904.581311 C 355.445615 911.167926 370.306884 916.266601 382.140305 915.502792 " stroke="#1d2b47" stroke-width="1.48" stroke-opacity="1" stroke-miterlimit="10"/><path stroke-linecap="butt" transform="matrix(0.393483, 0, 0, 0.393791, -12.881332, -9.415226)" fill="none" stroke-linejoin="miter" d="M 429.78174 956.679057 L 451.999187 936.105804 C 454.481029 933.824295 457.270619 932.018928 460.367957 930.699621 C 463.475223 929.380314 466.711545 928.616505 470.076922 928.418113 L 486.715189 927.416233 " stroke="#1d2b47" stroke-width="1.48" stroke-opacity="1" stroke-miterlimit="10"/><path stroke-linecap="butt" transform="matrix(0.393483, 0, 0, 0.393791, -12.881332, -9.415226)" fill-opacity="1" fill="#fcb332" fill-rule="nonzero" stroke-linejoin="miter" d="M 629.292035 841.145461 C 628.18017 839.974948 626.909467 839.012747 625.469998 838.268777 C 624.03053 837.534726 622.511643 837.058585 620.913337 836.850274 C 619.305104 836.632042 617.716725 836.70148 616.128346 837.038746 C 614.549895 837.385932 613.070717 837.981108 611.70074 838.834194 L 597.365622 847.682478 C 601.098312 853.058902 604.503399 857.899668 607.491537 862.155176 L 607.749648 862.532121 C 608.752312 863.950624 609.615993 865.438565 610.350618 867.015781 C 611.085244 868.583078 611.670958 870.209893 612.11769 871.886305 C 612.564421 873.562718 612.862242 875.25897 613.011153 876.98498 C 613.160063 878.720911 613.150136 880.446921 612.991298 882.172932 C 612.83246 883.898942 612.524712 885.595194 612.068053 887.271607 C 611.611394 888.948019 611.005825 890.564914 610.261272 892.132211 C 609.51672 893.699508 608.643111 895.187449 607.63052 896.596032 C 606.627856 898.004615 605.496136 899.314003 604.255215 900.534114 L 590.803633 913.677585 C 589.235109 915.215124 587.785713 916.851858 586.455446 918.607627 C 585.135106 920.353477 583.943822 922.198523 582.891521 924.122925 C 581.83922 926.047328 580.93583 928.041168 580.18135 930.104445 C 579.42687 932.157802 578.821301 934.270678 578.384497 936.413311 C 577.937765 938.565865 577.659799 940.738258 577.54067 942.930489 C 577.421542 945.122721 577.461251 947.305034 577.659799 949.497265 C 577.868274 951.679578 578.235586 953.842051 578.761737 955.964845 C 579.287887 958.09756 579.962948 960.180676 580.796847 962.214194 L 583.268761 968.205633 L 716.265697 879.861665 L 683.068582 828.855075 L 657.237573 844.855392 C 656.15549 845.529925 655.02377 846.105262 653.842413 846.581403 C 652.651129 847.057543 651.439991 847.434488 650.189142 847.702317 C 648.948221 847.970147 647.687446 848.12886 646.406816 848.178458 C 645.136113 848.228056 643.86541 848.168539 642.604634 847.999906 C 641.333931 847.831272 640.09301 847.563443 638.881871 847.176579 C 637.660805 846.799634 636.489376 846.313573 635.347729 845.728317 C 634.216009 845.14306 633.143853 844.468527 632.121334 843.704718 C 631.108743 842.930989 630.165643 842.077904 629.292035 841.145461 Z M 629.292035 841.145461 " stroke="#1d2b47" stroke-width="1.48" stroke-opacity="1" stroke-miterlimit="10"/><path stroke-linecap="butt" transform="matrix(0.393483, 0, 0, 0.393791, -12.881332, -9.415226)" fill-opacity="1" fill="#ffffff" fill-rule="nonzero" stroke-linejoin="miter" d="M 597.653516 907.001694 L 590.803633 913.687505 C 589.235109 915.225043 587.785713 916.871697 586.455446 918.617547 C 585.135106 920.363397 583.943822 922.208442 582.891521 924.132845 C 581.83922 926.057248 580.93583 928.051088 580.18135 930.114365 C 579.42687 932.167722 578.831228 934.280597 578.384497 936.423231 C 577.937765 938.575784 577.659799 940.748177 577.54067 942.940409 C 577.421542 945.132641 577.461251 947.314953 577.669726 949.507185 C 577.868274 951.689497 578.235586 953.85197 578.761737 955.974765 C 579.287887 958.107479 579.962948 960.190596 580.796847 962.224114 L 583.268761 968.215553 L 716.265697 879.871584 L 701.66254 857.760793 L 685.222821 868.434284 C 682.482867 870.705873 680.656232 873.562718 679.742914 877.00482 L 678.422574 882.004299 C 677.330564 886.091174 675.017487 889.315045 671.493272 891.656071 L 620.605589 925.581107 C 620.089366 925.928293 619.533433 926.225881 618.947718 926.463951 C 618.362004 926.702022 617.756434 926.880575 617.140938 926.99961 C 616.515513 927.108725 615.890089 927.168243 615.264665 927.158323 C 614.629314 927.148404 614.00389 927.078967 613.388393 926.940092 C 612.772896 926.811137 612.177254 926.612745 611.601467 926.364755 C 611.015752 926.106846 610.469747 925.799338 609.953524 925.432313 C 609.447228 925.065288 608.970714 924.658584 608.53391 924.192363 C 608.107034 923.736061 607.719866 923.240081 607.392263 922.704422 Z M 597.653516 907.001694 " stroke="#1d2b47" stroke-width="1.48" stroke-opacity="1" stroke-miterlimit="10"/><path stroke-linecap="butt" transform="matrix(0.393483, 0, 0, 0.393791, -12.881332, -9.415226)" fill="none" stroke-linejoin="miter" d="M 629.371454 841.135541 C 629.371454 841.135541 672.118696 871.995421 602.230032 914.401716 " stroke="#1d2b47" stroke-width="1.48" stroke-opacity="1" stroke-miterlimit="10"/><path stroke-linecap="round" transform="matrix(0.393483, 0, 0, 0.393791, -12.881332, -9.415226)" fill="none" stroke-linejoin="miter" d="M 603.083786 894.572433 C 603.083786 894.572433 608.394927 887.251768 616.962245 893.471358 " stroke="#1d2b47" stroke-width="1.48" stroke-opacity="1" stroke-miterlimit="10"/><path stroke-linecap="round" transform="matrix(0.393483, 0, 0, 0.393791, -12.881332, -9.415226)" fill="none" stroke-linejoin="miter" d="M 603.997104 886.319325 C 603.997104 886.319325 609.308245 878.998659 617.865635 885.218249 " stroke="#1d2b47" stroke-width="1.48" stroke-opacity="1" stroke-miterlimit="10"/><path stroke-linecap="round" transform="matrix(0.393483, 0, 0, 0.393791, -12.881332, -9.415226)" fill="none" stroke-linejoin="miter" d="M 604.920349 878.066217 C 604.920349 878.066217 610.221563 870.735632 618.78888 876.965141 " stroke="#1d2b47" stroke-width="1.48" stroke-opacity="1" stroke-miterlimit="10"/><path stroke-linecap="round" transform="matrix(0.393483, 0, 0, 0.393791, -12.881332, -9.415226)" fill="none" stroke-linejoin="miter" d="M 597.742862 883.71047 C 597.742862 883.71047 576.180621 868.712033 574.840427 878.661393 C 573.500232 888.610753 590.207991 890.66411 588.341646 885.495998 C 586.465373 880.337806 573.758344 883.571596 573.271903 891.606473 C 572.775534 899.651269 588.133171 896.169489 597.802427 889.295205 " stroke="#1d2b47" stroke-width="1.48" stroke-opacity="1" stroke-miterlimit="10"/><path stroke-linecap="butt" transform="matrix(0.393483, 0, 0, 0.393791, -12.881332, -9.415226)" fill="none" stroke-linejoin="miter" d="M 659.997381 899.254485 L 668.117967 870.051179 C 669.031285 866.807469 670.460826 863.81175 672.40659 861.07394 C 674.352354 858.32621 676.70514 855.985185 679.464948 854.050862 L 693.095223 844.468527 " stroke="#1d2b47" stroke-width="1.48" stroke-opacity="1" stroke-miterlimit="10"/><path stroke-linecap="butt" transform="matrix(0.393483, 0, 0, 0.393791, -12.881332, -9.415226)" fill-opacity="1" fill="#ffffff" fill-rule="nonzero" stroke-linejoin="miter" d="M 535.587617 822.476772 L 529.849599 813.479693 C 529.105047 812.30918 528.479623 811.06923 527.983254 809.769762 C 527.486886 808.470295 527.119573 807.131148 526.891244 805.752324 C 526.662914 804.383419 526.573568 803.004594 526.623205 801.605931 C 526.672842 800.217186 526.861462 798.848281 527.189065 797.489296 C 527.516668 796.14023 527.973327 794.830843 528.568969 793.571053 C 529.154684 792.311264 529.869454 791.120912 530.693425 789.999997 C 531.527324 788.889002 532.460497 787.857363 533.492943 786.93484 C 534.535316 786.002398 535.647182 785.18899 536.848393 784.484699 L 624.050385 733.368994 " stroke="#1d2b47" stroke-width="1.48" stroke-opacity="1" stroke-miterlimit="10"/><path stroke-linecap="butt" transform="matrix(0.393483, 0, 0, 0.393791, -12.881332, -9.415226)" fill="none" stroke-linejoin="miter" d="M 363.139325 837.376013 C 363.049978 835.987268 363.109543 834.608444 363.30809 833.229619 C 363.49671 831.850795 363.824313 830.501729 364.290899 829.192342 C 364.757486 827.873035 365.3432 826.623165 366.067898 825.432813 C 366.782668 824.232541 367.616567 823.121546 368.54974 822.099827 C 369.49284 821.068188 370.525286 820.145665 371.657006 819.332258 C 372.778798 818.508931 373.980009 817.814559 375.250712 817.239222 C 376.511488 816.663885 377.831828 816.217503 379.18195 815.900076 C 380.541999 815.592568 381.921903 815.414015 383.311734 815.384257 L 484.312767 812.785321 " stroke="#1d2b47" stroke-width="1.48" stroke-opacity="1" stroke-miterlimit="10"/><path stroke-linecap="butt" transform="matrix(0.393483, 0, 0, 0.393791, -12.881332, -9.415226)" fill="none" stroke-linejoin="miter" d="M 495.004541 501.528073 C 495.004541 501.528073 509.210603 516.338038 528.757589 513.381997 " stroke="#1d2b47" stroke-width="1.48" stroke-opacity="1" stroke-miterlimit="10"/><path stroke-linecap="butt" transform="matrix(0.393483, 0, 0, 0.393791, -12.881332, -9.415226)" fill="none" stroke-linejoin="miter" d="M 511.771864 514.05653 C 511.771864 514.05653 476.251745 648.705197 573.261975 763.05836 " stroke="#1d2b47" stroke-width="1.48" stroke-opacity="1" stroke-miterlimit="10"/><path stroke-linecap="butt" transform="matrix(0.393483, 0, 0, 0.393791, -12.881332, -9.415226)" fill="none" stroke-linejoin="miter" d="M 450.81783 534.004848 C 450.81783 534.004848 420.023138 672.601516 423.587063 812.795241 " stroke="#1d2b47" stroke-width="1.48" stroke-opacity="1" stroke-miterlimit="10"/><path fill="#cfedff" d="M 205.644531 173.335938 L 151.570312 173.335938 L 155.589844 130.269531 L 156.316406 122.605469 C 156.375 121.957031 156.46875 121.308594 156.585938 120.667969 C 156.707031 120.023438 156.855469 119.390625 157.035156 118.761719 C 157.214844 118.132812 157.421875 117.515625 157.660156 116.90625 C 157.894531 116.296875 158.160156 115.699219 158.449219 115.113281 C 158.742188 114.527344 159.058594 113.957031 159.402344 113.402344 C 159.746094 112.847656 160.117188 112.308594 160.511719 111.785156 C 160.902344 111.265625 161.320312 110.761719 161.761719 110.28125 C 162.199219 109.796875 162.664062 109.335938 163.144531 108.894531 C 163.628906 108.457031 164.128906 108.039062 164.652344 107.644531 C 165.171875 107.25 165.710938 106.882812 166.265625 106.539062 C 166.824219 106.195312 167.394531 105.875 167.976562 105.585938 C 168.5625 105.292969 169.160156 105.03125 169.769531 104.792969 C 170.378906 104.558594 170.996094 104.351562 171.625 104.171875 C 172.253906 103.992188 172.890625 103.84375 173.53125 103.722656 C 174.175781 103.601562 174.820312 103.511719 175.472656 103.453125 C 176.121094 103.394531 176.773438 103.363281 177.425781 103.363281 C 178.695312 103.363281 179.953125 103.476562 181.199219 103.703125 C 182.449219 103.929688 183.664062 104.265625 184.851562 104.710938 C 186.039062 105.152344 187.179688 105.699219 188.269531 106.351562 C 189.355469 107 190.378906 107.738281 191.335938 108.574219 C 192.292969 109.40625 193.167969 110.316406 193.960938 111.308594 C 194.753906 112.296875 195.453125 113.347656 196.058594 114.464844 C 196.664062 115.582031 197.164062 116.742188 197.558594 117.945312 C 197.957031 119.152344 198.242188 120.382812 198.417969 121.636719 Z M 205.644531 173.335938 " fill-opacity="1" fill-rule="nonzero"/><path stroke-linecap="butt" transform="matrix(0.393483, 0, 0, 0.393791, -12.881332, -9.415226)" fill="none" stroke-linejoin="miter" d="M 483.617851 286.391762 C 486.844245 286.391762 490.040857 286.67943 493.217615 287.244847 C 496.384445 287.820184 499.481783 288.67327 502.499703 289.804104 C 505.517623 290.934939 508.416414 292.313763 511.186149 293.970337 C 513.955885 295.616991 516.556855 297.491795 518.98906 299.61459 C 521.421265 301.727465 523.644995 304.038732 525.66025 306.558311 C 527.685433 309.06797 529.462432 311.746262 531.001174 314.573349 C 532.529988 317.410355 533.810619 320.356476 534.813283 323.421633 C 535.825874 326.47687 536.550572 329.611464 536.997303 332.795656 L 555.382787 464.081579 L 417.938391 464.081579 L 428.153651 354.717975 " stroke="#1d2b47" stroke-width="1.48" stroke-opacity="1" stroke-miterlimit="10"/><path stroke-linecap="butt" transform="matrix(0.393483, 0, 0, 0.393791, -12.881332, -9.415226)" fill-opacity="1" fill="#a7d7fc" fill-rule="nonzero" stroke-linejoin="miter" d="M 450.81783 321.328597 L 443.819037 301.836581 C 440.97981 293.910819 439.550269 285.727148 439.550269 277.295487 C 439.550269 275.876984 439.689252 274.458481 439.967218 273.059817 C 440.245184 271.671073 440.652206 270.312088 441.198212 268.992781 C 441.744217 267.673474 442.419278 266.423604 443.213467 265.243172 C 443.997729 264.05282 444.90112 262.951744 445.913711 261.949864 C 446.916375 260.938065 448.008385 260.045301 449.199669 259.251733 C 450.381026 258.458164 451.631874 257.783632 452.952214 257.238053 C 454.272554 256.692475 455.622676 256.285772 457.022435 256.008023 C 458.422193 255.730274 459.83188 255.5914 461.26142 255.5914 L 488.124876 255.5914 " stroke="#1d2b47" stroke-width="1.48" stroke-opacity="1" stroke-miterlimit="10"/><path stroke-linecap="butt" transform="matrix(0.393483, 0, 0, 0.393791, -12.881332, -9.415226)" fill-opacity="1" fill="#1d2b47" fill-rule="nonzero" stroke-linejoin="miter" d="M 430.49651 191.699248 C 430.49651 191.699248 417.997955 225.852435 450.728484 235.643082 C 464.477887 233.302056 451.731148 200.706246 451.731148 200.706246 Z M 430.49651 191.699248 " stroke="#1d2b47" stroke-width="1.48" stroke-opacity="1" stroke-miterlimit="10"/><path fill="#fc9797" d="M 181.753906 82.996094 L 182.65625 104.285156 L 168.929688 108.566406 L 170.105469 82.699219 " fill-opacity="1" fill-rule="nonzero"/><path stroke-linecap="round" transform="matrix(0.393483, 0, 0, 0.393791, -12.881332, -9.415226)" fill="none" stroke-linejoin="miter" d="M 494.647156 234.670961 L 496.940378 288.732787 " stroke="#1d2b47" stroke-width="1.48" stroke-opacity="1" stroke-miterlimit="10"/><path fill="#1d2b47" d="M 169.695312 91.457031 C 169.695312 91.457031 173.171875 91.945312 175.804688 90.429688 C 174.929688 94.367188 169.367188 98.664062 169.367188 98.664062 Z M 169.695312 91.457031 " fill-opacity="1" fill-rule="nonzero"/><path fill="#fc9797" d="M 181.761719 82.695312 C 181.761719 83.300781 181.703125 83.902344 181.585938 84.492188 C 181.46875 85.085938 181.292969 85.664062 181.0625 86.222656 C 180.832031 86.78125 180.546875 87.3125 180.210938 87.816406 C 179.875 88.320312 179.492188 88.785156 179.066406 89.210938 C 178.636719 89.640625 178.171875 90.023438 177.671875 90.359375 C 177.167969 90.695312 176.636719 90.976562 176.078125 91.210938 C 175.519531 91.441406 174.945312 91.617188 174.351562 91.734375 C 173.757812 91.851562 173.160156 91.910156 172.554688 91.910156 C 171.949219 91.910156 171.351562 91.851562 170.757812 91.734375 C 170.167969 91.617188 169.589844 91.441406 169.03125 91.210938 C 168.472656 90.976562 167.941406 90.695312 167.441406 90.359375 C 166.9375 90.023438 166.472656 89.640625 166.042969 89.210938 C 165.617188 88.785156 165.234375 88.320312 164.898438 87.816406 C 164.5625 87.3125 164.28125 86.78125 164.046875 86.222656 C 163.816406 85.664062 163.644531 85.085938 163.523438 84.492188 C 163.40625 83.902344 163.347656 83.300781 163.347656 82.695312 C 163.347656 82.089844 163.40625 81.492188 163.523438 80.898438 C 163.644531 80.304688 163.816406 79.730469 164.046875 79.171875 C 164.28125 78.609375 164.5625 78.082031 164.898438 77.578125 C 165.234375 77.074219 165.617188 76.609375 166.042969 76.179688 C 166.472656 75.753906 166.9375 75.371094 167.441406 75.035156 C 167.941406 74.699219 168.472656 74.414062 169.03125 74.183594 C 169.589844 73.953125 170.167969 73.777344 170.757812 73.660156 C 171.351562 73.539062 171.949219 73.480469 172.554688 73.480469 C 173.160156 73.480469 173.757812 73.539062 174.351562 73.660156 C 174.945312 73.777344 175.519531 73.953125 176.078125 74.183594 C 176.636719 74.414062 177.167969 74.699219 177.671875 75.035156 C 178.171875 75.371094 178.636719 75.753906 179.066406 76.179688 C 179.492188 76.609375 179.875 77.074219 180.210938 77.578125 C 180.546875 78.082031 180.832031 78.609375 181.0625 79.171875 C 181.292969 79.730469 181.46875 80.304688 181.585938 80.898438 C 181.703125 81.492188 181.761719 82.089844 181.761719 82.695312 Z M 181.761719 82.695312 " fill-opacity="1" fill-rule="nonzero"/><path stroke-linecap="round" transform="matrix(0.393483, 0, 0, 0.393791, -12.881332, -9.415226)" fill="none" stroke-linejoin="miter" d="M 479.458284 255.82947 C 478.654167 256.136978 477.830196 256.384968 476.98637 256.603199 C 476.152471 256.811511 475.298717 256.970224 474.444964 257.089259 C 473.59121 257.208295 472.727529 257.277732 471.863848 257.297571 C 471.000167 257.31741 470.136487 257.297571 469.272806 257.218214 C 468.409125 257.148777 467.555371 257.019822 466.711545 256.851189 C 465.857791 256.682556 465.023893 256.474244 464.199921 256.206415 C 463.37595 255.948505 462.571833 255.640998 461.777643 255.293812 C 460.993381 254.936706 460.219047 254.549842 459.474494 254.113379 C 458.729942 253.676917 458.005244 253.200776 457.310328 252.684957 C 456.62534 252.169137 455.960206 251.61364 455.324855 251.028383 C 454.689503 250.433207 454.093861 249.808272 453.528001 249.153578 C 452.972069 248.498885 452.445918 247.814432 451.959477 247.100221 C 451.463109 246.38601 451.016378 245.651959 450.619283 244.88815 C 450.212261 244.124341 449.844948 243.340692 449.527273 242.537204 C 449.209597 241.733717 448.931631 240.91039 448.703301 240.077143 C 448.484899 239.243897 448.296279 238.400731 448.167223 237.547645 C 448.02824 236.694559 447.938894 235.831554 447.899184 234.968549 C 447.869402 234.105543 447.869402 233.242538 447.928966 232.379533 C 447.988531 231.516527 448.087804 230.653522 448.236715 229.810356 C 448.395553 228.95727 448.5941 228.114104 448.832357 227.290777 C 449.080541 226.457531 449.368435 225.644124 449.705965 224.850555 C 450.043496 224.047068 450.420736 223.273339 450.837685 222.519449 C 451.254634 221.765559 451.721221 221.031509 452.217589 220.327217 C 452.723885 219.622926 453.259963 218.948393 453.83575 218.303619 C 454.411537 217.658845 455.027034 217.053749 455.672313 216.478412 C 456.317592 215.893156 456.992653 215.357497 457.687568 214.851597 C 458.392411 214.355617 459.127036 213.889396 459.881516 213.472773 C 460.635996 213.04623 461.410331 212.669285 462.20452 212.332019 C 463.008637 212.004672 463.822681 211.707084 464.646653 211.469013 C 465.480551 211.221023 466.31445 211.022631 467.168204 210.873837 C 468.021957 210.715124 468.875711 210.615928 469.739392 210.55641 C 470.603073 210.496892 471.466754 210.486973 472.330435 210.526651 " stroke="#1d2b47" stroke-width="1.48" stroke-opacity="1" stroke-miterlimit="10"/><path stroke-linecap="butt" transform="matrix(0.393483, 0, 0, 0.393791, -12.881332, -9.415226)" fill-opacity="1" fill="#1d2b47" fill-rule="nonzero" stroke-linejoin="miter" d="M 495.570401 253.686836 C 495.570401 253.686836 483.141337 253.121419 483.28032 237.121102 C 491.103086 234.512247 488.055384 223.124545 482.664824 224.642244 C 477.264336 226.159943 477.284191 238.638801 477.284191 238.638801 C 477.284191 238.638801 472.83673 231.913312 474.564092 220.128825 L 446.241314 218.849197 C 445.069885 218.799599 443.91831 218.630965 442.776663 218.343297 C 441.644943 218.065548 440.543005 217.678684 439.480777 217.172784 C 438.418549 216.676804 437.415885 216.081628 436.472785 215.387256 C 435.529685 214.692884 434.666004 213.909235 433.881742 213.04623 C 433.087553 212.183225 432.392637 211.240863 431.787068 210.238983 C 431.181498 209.237103 430.68513 208.185625 430.278108 207.08455 C 429.881013 205.983474 429.59312 204.852639 429.424354 203.692046 C 429.245662 202.531453 429.186098 201.370859 429.235734 200.200346 C 429.305226 198.8612 429.424354 197.541893 429.612974 196.212667 C 429.811522 194.89336 430.059706 193.583972 430.387309 192.284505 C 430.704985 190.994956 431.082225 189.715328 431.528956 188.455538 C 431.975688 187.195749 432.481983 185.955799 433.047843 184.745608 C 433.613703 183.545336 434.239127 182.364903 434.924116 181.21423 C 435.609104 180.063556 436.343729 178.95256 437.137919 177.881244 C 437.922181 176.800007 438.766007 175.768368 439.65947 174.776408 C 440.552933 173.784448 441.496033 172.832167 442.478842 171.929483 C 443.461651 171.036719 444.494097 170.183633 445.566253 169.380145 C 446.638409 168.586577 447.740347 167.842607 448.881994 167.148235 C 450.023641 166.453863 451.204998 165.819008 452.406209 165.243672 C 453.60742 164.668335 454.838414 164.152515 456.09919 163.706133 C 457.350038 163.249832 458.630668 162.853048 459.921226 162.525701 C 461.221711 162.198354 462.522196 161.930525 463.842536 161.732133 C 465.162876 161.533741 466.493143 161.394866 467.82341 161.325429 C 469.163605 161.255992 470.493872 161.246072 471.834066 161.30559 C 503.26411 162.743932 525.153955 193.306223 516.139905 223.441972 C 512.764601 234.68088 506.490505 245.473406 495.570401 253.686836 Z M 495.570401 253.686836 " stroke="#1d2b47" stroke-width="1.48" stroke-opacity="1" stroke-miterlimit="10"/><path stroke-linecap="round" transform="matrix(0.393483, 0, 0, 0.393791, -12.881332, -9.415226)" fill="none" stroke-linejoin="miter" d="M 462.05561 299.60467 L 463.852463 256.176656 " stroke="#1d2b47" stroke-width="1.48" stroke-opacity="1" stroke-miterlimit="10"/><path fill="#cfedff" d="M 288.261719 106.160156 L 251.144531 104.355469 L 241.582031 137.566406 L 188.460938 106.484375 L 188.785156 136.351562 L 188.984375 154.441406 L 227.671875 171.933594 C 254.707031 181.261719 276.613281 166.335938 279.175781 151.175781 L 288.265625 106.160156 " fill-opacity="1" fill-rule="nonzero"/><path stroke-linecap="butt" transform="matrix(0.393483, 0, 0, 0.393791, -12.881332, -9.415226)" fill="none" stroke-linejoin="miter" d="M 513.002857 416.100467 L 611.3235 460.520442 C 680.030808 484.20845 735.703482 446.305653 742.215835 407.807681 L 765.316818 293.494196 " stroke="#1d2b47" stroke-width="1.48" stroke-opacity="1" stroke-miterlimit="10"/><path stroke-linecap="butt" transform="matrix(0.393483, 0, 0, 0.393791, -12.881332, -9.415226)" fill="none" stroke-linejoin="miter" d="M 765.326745 293.494196 L 670.967122 288.91134 L 646.664927 373.24779 L 511.682518 294.317523 " stroke="#1d2b47" stroke-width="1.48" stroke-opacity="1" stroke-miterlimit="10"/><path stroke-linecap="butt" transform="matrix(0.393483, 0, 0, 0.393791, -12.881332, -9.415226)" fill-opacity="1" fill="#1d2b47" fill-rule="nonzero" stroke-linejoin="miter" d="M 753.602525 275.678592 L 731.077329 270.867586 L 726.083863 300.675987 L 747.328429 305.219165 C 748.301311 305.427476 749.28412 305.536592 750.276857 305.556431 C 751.259666 305.566351 752.242475 305.486994 753.225285 305.298522 C 754.198167 305.119969 755.141267 304.852139 756.064512 304.485114 C 756.987757 304.118089 757.861365 303.661787 758.695264 303.126129 C 759.529163 302.59047 760.303497 301.975455 761.018268 301.281083 C 761.723111 300.586711 762.358462 299.832821 762.924322 299.019414 C 763.490182 298.206007 763.966696 297.343001 764.363791 296.430398 C 764.750958 295.517795 765.048779 294.575433 765.257254 293.613231 C 765.465728 292.64111 765.574929 291.65907 765.584857 290.66711 C 765.604711 289.66523 765.515365 288.683189 765.336673 287.711069 C 765.15798 286.729028 764.880014 285.786666 764.512701 284.864143 C 764.145388 283.94162 763.68873 283.058776 763.152652 282.225529 C 762.606647 281.392283 761.99115 280.618554 761.296234 279.914262 C 760.601318 279.200051 759.846839 278.565196 759.022867 277.999779 C 758.208823 277.444281 757.345142 276.96814 756.431824 276.571356 C 755.518507 276.184492 754.575407 275.886904 753.602525 275.678592 Z M 753.602525 275.678592 " stroke="#1d2b47" stroke-width="1.48" stroke-opacity="1" stroke-miterlimit="10"/><path stroke-linecap="butt" transform="matrix(0.393483, 0, 0, 0.393791, -12.881332, -9.415226)" fill-opacity="1" fill="#fc9797" fill-rule="nonzero" stroke-linejoin="miter" d="M 687.923064 230.078185 L 679.345819 259.80723 L 670.967122 288.91134 L 726.044154 300.675987 L 731.077329 270.867586 L 735.713409 243.529165 Z M 687.923064 230.078185 " stroke="#1d2b47" stroke-width="1.48" stroke-opacity="1" stroke-miterlimit="10"/><path fill="#cfedff" d="M 165.90625 114.320312 L 168.925781 109.003906 C 169.636719 107.757812 170.496094 106.625 171.503906 105.605469 C 172.515625 104.589844 173.636719 103.71875 174.878906 102.996094 C 176.117188 102.277344 177.429688 101.730469 178.8125 101.355469 C 180.195312 100.980469 181.605469 100.796875 183.039062 100.796875 L 200.628906 100.796875 L 200.628906 113.222656 L 176.382812 113.222656 " fill-opacity="1" fill-rule="nonzero"/><path stroke-linecap="round" transform="matrix(0.393483, 0, 0, 0.393791, -12.881332, -9.415226)" fill="none" stroke-linejoin="miter" d="M 559.214751 311.428835 L 481.016881 311.428835 " stroke="#1d2b47" stroke-width="1.48" stroke-opacity="1" stroke-miterlimit="10"/><path stroke-linecap="round" transform="matrix(0.393483, 0, 0, 0.393791, -12.881332, -9.415226)" fill="none" stroke-linejoin="miter" d="M 542.616193 279.874584 L 497.913259 279.874584 C 494.269916 279.874584 490.686136 280.340805 487.171848 281.293087 C 483.647633 282.245368 480.321965 283.634112 477.17499 285.459319 C 474.018087 287.294445 471.168933 289.506516 468.597745 292.085613 C 466.036484 294.674629 463.852463 297.551313 462.045682 300.715666 L 454.381755 313.581389 C 452.009114 317.559149 450.559719 321.864256 450.053423 326.466951 L 443.709835 464.081579 " stroke="#1d2b47" stroke-width="1.48" stroke-opacity="1" stroke-miterlimit="10"/><path fill="#fc9797" d="M 274.972656 61.792969 L 273.480469 56.429688 L 263.09375 50.617188 C 262.769531 50.4375 262.429688 50.296875 262.074219 50.199219 C 261.714844 50.101562 261.351562 50.046875 260.984375 50.035156 C 260.613281 50.027344 260.246094 50.058594 259.886719 50.140625 C 259.523438 50.21875 259.175781 50.339844 258.84375 50.5 C 258.511719 50.664062 258.203125 50.863281 257.921875 51.101562 C 257.636719 51.339844 257.386719 51.609375 257.167969 51.90625 C 256.949219 52.203125 256.769531 52.523438 256.625 52.867188 C 256.484375 53.210938 256.386719 53.5625 256.332031 53.929688 L 253.640625 71.652344 L 261.902344 81.554688 L 278.011719 77.929688 L 278.101562 75.414062 C 279.105469 71.78125 277.710938 66.75 275.886719 63.4375 Z M 274.972656 61.792969 " fill-opacity="1" fill-rule="nonzero"/><path fill="#fc9797" d="M 272.074219 72.425781 C 267.078125 67.277344 259.925781 68.160156 259.925781 68.160156 L 262.152344 62.925781 C 262.347656 62.46875 262.449219 61.992188 262.457031 61.496094 C 262.464844 61 262.378906 60.519531 262.199219 60.058594 C 262.023438 59.59375 261.761719 59.179688 261.425781 58.820312 C 261.085938 58.457031 260.691406 58.171875 260.238281 57.964844 L 259.125 57.453125 L 253.40625 66.558594 C 252.964844 67.25 252.714844 68 252.644531 68.8125 C 252.574219 69.628906 252.695312 70.414062 253.011719 71.167969 L 254.53125 75.105469 C 255.148438 76.699219 255.910156 78.214844 256.824219 79.660156 C 257.734375 81.105469 258.777344 82.449219 259.949219 83.691406 C 261.121094 84.933594 262.402344 86.054688 263.789062 87.046875 C 265.179688 88.042969 266.648438 88.894531 268.203125 89.605469 L 276.359375 87.75 L 277.992188 77.957031 " fill-opacity="1" fill-rule="nonzero"/><path stroke-linecap="round" transform="matrix(0.393483, 0, 0, 0.393791, -12.881332, -9.415226)" fill="none" stroke-linejoin="miter" d="M 734.611472 187.046955 C 742.821404 198.732245 739.863049 218.859116 739.863049 218.859116 L 734.532053 250.264574 " stroke="#1d2b47" stroke-width="1.48" stroke-opacity="1" stroke-miterlimit="10"/><path fill="#fc9797" d="M 73.355469 76.886719 L 74.019531 71.375 L 83.410156 64.058594 C 83.703125 63.828125 84.019531 63.640625 84.355469 63.488281 C 84.691406 63.335938 85.042969 63.222656 85.410156 63.15625 C 85.773438 63.089844 86.140625 63.066406 86.507812 63.089844 C 86.878906 63.113281 87.242188 63.175781 87.59375 63.289062 C 87.949219 63.398438 88.285156 63.546875 88.601562 63.738281 C 88.917969 63.929688 89.207031 64.160156 89.46875 64.421875 C 89.730469 64.683594 89.960938 64.972656 90.152344 65.289062 C 90.34375 65.605469 90.496094 65.941406 90.605469 66.296875 L 95.941406 83.417969 L 89.269531 94.441406 L 72.800781 93.296875 L 72.332031 90.824219 C 70.792969 87.382812 71.40625 82.183594 72.726562 78.648438 Z M 73.355469 76.886719 " fill-opacity="1" fill-rule="nonzero"/><path fill="#fc9797" d="M 77.820312 86.960938 C 81.984375 81.113281 89.1875 80.90625 89.1875 80.90625 L 86.199219 76.066406 C 85.9375 75.644531 85.765625 75.1875 85.683594 74.699219 C 85.597656 74.210938 85.609375 73.722656 85.71875 73.238281 C 85.824219 72.753906 86.015625 72.308594 86.296875 71.898438 C 86.578125 71.488281 86.925781 71.148438 87.339844 70.875 L 88.363281 70.199219 L 95.394531 78.335938 C 95.925781 78.953125 96.289062 79.660156 96.476562 80.453125 C 96.664062 81.246094 96.660156 82.039062 96.460938 82.832031 L 95.550781 86.941406 C 95.179688 88.609375 94.652344 90.226562 93.972656 91.792969 C 93.289062 93.359375 92.460938 94.84375 91.488281 96.25 C 90.515625 97.65625 89.421875 98.957031 88.195312 100.148438 C 86.972656 101.339844 85.648438 102.402344 84.21875 103.339844 L 76.644531 105.703125 L 72.789062 93.3125 " fill-opacity="1" fill-rule="nonzero"/><path stroke-linecap="round" transform="matrix(0.393483, 0, 0, 0.393791, -12.881332, -9.415226)" fill="none" stroke-linejoin="miter" d="M 217.068046 225.773078 C 210.724459 238.549525 216.690806 258.011782 216.690806 258.011782 L 228.107278 294.089372 " stroke="#1d2b47" stroke-width="1.48" stroke-opacity="1" stroke-miterlimit="10"/><path stroke-linecap="round" transform="matrix(0.393483, 0, 0, 0.393791, -12.881332, -9.415226)" fill="none" stroke-linejoin="miter" d="M 649.345316 363.953124 L 639.169765 398.334462 " stroke="#1d2b47" stroke-width="1.48" stroke-opacity="1" stroke-miterlimit="10"/><path stroke-linecap="round" transform="matrix(0.393483, 0, 0, 0.393791, -12.881332, -9.415226)" fill="none" stroke-linejoin="miter" d="M 334.637854 386.163111 L 312.807574 403.661287 " stroke="#1d2b47" stroke-width="1.48" stroke-opacity="1" stroke-miterlimit="10"/><g clip-path="url(#36d983ed0f)"><path fill="#ffffff" d="M 346.855469 130.15625 C 343.121094 130.136719 339.441406 129.695312 335.808594 128.824219 C 316.460938 124.304688 298.03125 109.332031 288.851562 90.679688 C 275.003906 62.523438 251.257812 60.917969 251.015625 60.902344 L 251.410156 53.917969 C 251.703125 53.917969 258.699219 54.359375 267.578125 58.769531 C 275.660156 62.785156 287.007812 71.046875 295.144531 87.585938 C 297.335938 91.957031 299.976562 96.035156 303.066406 99.820312 C 306.15625 103.609375 309.621094 107.011719 313.460938 110.035156 C 320.910156 115.941406 329.199219 120.089844 337.414062 122.011719 C 347.675781 124.410156 356.867188 123.011719 363.292969 118.074219 " fill-opacity="1" fill-rule="nonzero"/></g><g clip-path="url(#ae5796911a)"><path stroke-linecap="butt" transform="matrix(0.393483, 0, 0, 0.393791, -12.881332, -9.415226)" fill="none" stroke-linejoin="miter" d="M 914.237251 354.430306 C 904.746688 354.380708 895.395108 353.259794 886.162657 351.047722 C 836.992408 339.570744 790.15509 301.548912 766.825778 254.182816 C 731.633261 182.682331 671.284797 178.605374 670.669301 178.565696 L 671.671965 160.829449 C 672.416517 160.829449 690.196431 161.950364 712.761337 173.149594 C 733.301059 183.346944 762.14006 204.3269 782.818766 246.326492 C 788.388019 257.426526 795.098919 267.78259 802.951466 277.394683 C 810.804014 287.016696 819.609588 295.656669 829.36819 303.33444 C 848.299679 318.332878 869.365552 328.867494 890.242805 333.747938 C 916.321998 339.838573 939.681092 336.287356 956.011611 323.74898 " stroke="#1d2b47" stroke-width="1.48" stroke-opacity="1" stroke-miterlimit="10"/></g><path stroke-linecap="butt" transform="matrix(-0.388735, -0.0609915, 0.0609438, -0.389039, 473.939829, 155.496947)" fill-opacity="1" fill="#fcb332" fill-rule="nonzero" stroke-linejoin="miter" d="M 637.864355 115.576411 L 677.597583 115.58256 L 677.600336 206.87276 L 637.8573 206.868148 C 636.360636 206.871849 634.871295 206.794077 633.381007 206.646167 C 631.902063 206.50652 630.420636 206.286936 628.957877 205.99414 C 627.48531 205.702881 626.041219 205.336873 624.607525 204.90899 C 623.182102 204.46977 621.767076 203.968675 620.390333 203.391293 C 619.005319 202.825249 617.658588 202.182917 616.341869 201.475636 C 615.026687 200.778154 613.73998 200.005923 612.494629 199.177005 C 611.259086 198.346549 610.055091 197.460943 608.900723 196.507312 C 607.747892 195.563481 606.63488 194.553163 605.585912 193.502682 C 604.5256 192.443939 603.517989 191.336771 602.572884 190.17964 C 601.62778 189.022509 600.736912 187.826753 599.898744 186.582572 C 599.070383 185.336853 598.307603 184.060771 597.597522 182.736265 C 596.898786 181.42002 596.255822 180.074951 595.68671 178.688181 C 595.109326 177.312748 594.60733 175.905415 594.170915 174.46772 C 593.745843 173.038286 593.378081 171.589827 593.088779 170.129068 C 592.797941 168.658509 592.577292 167.186986 592.433567 165.693363 C 592.281571 164.211077 592.208036 162.716491 592.214498 161.219404 C 592.211152 159.723855 592.279531 158.237142 592.427908 156.747929 C 592.576285 155.258716 592.796387 153.778339 593.089752 152.316599 C 593.38158 150.845059 593.748207 149.401956 594.176752 147.969227 C 594.615105 146.53496 595.118448 145.130668 595.686782 143.75635 C 596.263388 142.370694 596.896713 141.02635 597.603301 139.700642 C 598.311425 138.384734 599.076268 137.110138 599.906103 135.865516 C 600.735937 134.620895 601.622491 133.417584 602.577109 132.263848 C 603.52192 131.111649 604.52345 130.000762 605.584772 128.950786 C 606.644559 127.89101 607.742986 126.885421 608.901206 125.940744 C 610.057889 124.986266 611.256286 124.105575 612.501595 123.267733 C 613.748441 122.439691 615.025656 121.677173 616.341512 120.968842 C 617.657369 120.260511 619.014939 119.625966 620.393071 119.058483 C 621.769667 118.4812 623.178169 117.979241 624.607233 117.544344 C 626.036298 117.109447 627.48746 116.751411 628.959185 116.460437 C 630.419567 116.161201 631.903583 115.948626 633.387009 115.796389 C 634.871972 115.653951 636.36769 115.580112 637.864355 115.576411 Z M 637.864355 115.576411 " stroke="#1d2b47" stroke-width="1.48" stroke-opacity="1" stroke-miterlimit="10"/><path stroke-linecap="butt" transform="matrix(0.0609438, -0.389039, 0.388735, 0.0609915, 124.141388, 272.64136)" fill-opacity="1" fill="#cfedff" fill-rule="nonzero" stroke-linejoin="miter" d="M 638.38388 154.608036 C 638.381025 155.422422 638.084748 156.222518 637.506385 157.016594 C 636.918223 157.812207 636.056238 158.590456 634.907555 159.333264 C 633.76041 160.085879 632.355966 160.798443 630.684425 161.472492 C 629.022683 162.145004 627.133043 162.772857 625.013967 163.346241 C 622.894891 163.919626 620.585579 164.432397 618.094292 164.873211 C 615.594743 165.325369 612.963758 165.707695 610.201335 166.02019 C 607.429112 166.33422 604.572914 166.56093 601.635817 166.719934 C 598.698719 166.878938 595.729721 166.962554 592.727284 166.960975 C 589.734648 166.957859 586.760648 166.881481 583.823348 166.718961 C 580.887585 166.566249 578.029257 166.331055 575.259704 166.021653 C 572.49015 165.712251 569.859907 165.330765 567.368975 164.877196 C 564.878042 164.423627 562.568695 163.911443 560.450733 163.33911 C 558.332771 162.766777 556.43867 162.149299 554.77669 161.475333 C 553.103374 160.793096 551.697729 160.088992 550.555145 159.333598 C 549.404298 158.589549 548.539185 157.810751 547.953083 157.018359 C 547.376781 156.224429 547.079488 155.416904 547.083881 154.612325 C 547.076935 153.799476 547.373213 152.99938 547.961375 152.203767 C 548.539738 151.409691 549.411523 150.629905 550.560205 149.887097 C 551.697551 149.136019 553.111794 148.421919 554.773536 147.749406 C 556.435277 147.076893 558.334717 146.447504 560.453793 145.87412 C 562.572869 145.300735 564.872382 144.789501 567.371931 144.337343 C 569.861679 143.886721 572.494203 143.514203 575.256626 143.201708 C 578.028848 142.887677 580.883509 142.65116 583.822144 142.501963 C 586.769042 142.341423 589.72824 142.259343 592.730676 142.260923 C 595.723312 142.264038 598.697312 142.340416 601.633075 142.493129 C 604.580176 142.654113 607.428703 142.890842 610.198257 143.200245 C 612.96781 143.509647 615.598053 143.891133 618.088986 144.344702 C 620.578381 144.788464 622.887728 145.300647 625.00569 145.87298 C 627.125189 146.455121 629.019291 147.072599 630.68127 147.746564 C 632.353049 148.418994 633.760231 149.132906 634.902816 149.888299 C 636.053663 150.632349 636.917237 151.401339 637.504877 152.203539 C 638.09098 152.995932 638.376935 153.795186 638.38388 154.608036 Z M 638.38388 154.608036 " stroke="#1d2b47" stroke-width="1.48" stroke-opacity="1" stroke-miterlimit="10"/><path stroke-linecap="butt" transform="matrix(0.0609438, -0.389039, 0.388735, 0.0609915, 131.101813, 267.459299)" fill-opacity="1" fill="#1d2b47" fill-rule="nonzero" stroke-linejoin="miter" d="M 603.966083 137.6872 C 603.970324 138.098529 603.709005 138.48115 603.206338 138.861414 C 602.692334 139.233407 601.960231 139.559204 601.011567 139.848611 C 600.072703 140.136482 598.981264 140.347786 597.741864 140.511947 C 596.500927 140.6663 595.216751 140.736994 593.881075 140.735374 C 592.546937 140.74356 591.259298 140.664068 590.019694 140.506705 C 588.780091 140.349341 587.691136 140.128165 586.743029 139.844714 C 585.794923 139.561262 585.070676 139.232666 584.560489 138.860462 C 584.048765 138.478451 583.788189 138.09726 583.793747 137.684395 C 583.791044 137.282874 584.042563 136.901789 584.55503 136.519989 C 585.069034 136.147995 585.801137 135.822199 586.749801 135.532792 C 587.688665 135.244921 588.778566 135.023809 590.019504 134.869456 C 591.250641 134.716639 592.544617 134.644409 593.878755 134.636222 C 595.214431 134.637843 596.50207 134.717335 597.741674 134.874698 C 598.979739 135.022254 600.068694 135.24343 601.018339 135.536689 C 601.956646 135.821677 602.690692 136.148737 603.200879 136.520941 C 603.711065 136.893145 603.973179 137.284143 603.966083 137.6872 Z M 603.966083 137.6872 " stroke="#1d2b47" stroke-width="1.48" stroke-opacity="1" stroke-miterlimit="10"/><path stroke-linecap="butt" transform="matrix(0.0609438, -0.389039, 0.388735, 0.0609915, 118.203791, 275.413693)" fill-opacity="1" fill="#1d2b47" fill-rule="nonzero" stroke-linejoin="miter" d="M 599.390057 166.951679 C 599.392761 167.3532 599.132979 167.745629 598.618975 168.117622 C 598.10497 168.489615 597.384205 168.823683 596.434003 169.103283 C 595.485339 169.39269 594.395438 169.613802 593.1643 169.766619 C 591.923363 169.920972 590.640725 170.001474 589.295249 170.001389 C 587.959573 169.999768 586.671934 169.920276 585.443668 169.771184 C 584.204065 169.61382 583.11511 169.392644 582.167003 169.109193 C 581.217359 168.815933 580.493112 168.487338 579.973126 168.11667 C 579.462939 167.744466 579.210625 167.351932 579.207921 166.950411 C 579.215017 166.547353 579.464999 166.156461 579.979003 165.784468 C 580.493008 165.412475 581.223573 165.076871 582.162437 164.789 C 583.112639 164.5094 584.20254 164.288288 585.443477 164.133935 C 586.674615 163.981118 587.957253 163.900616 589.302729 163.900701 C 590.638405 163.902322 591.926044 163.981814 593.16411 164.12937 C 594.393913 164.28827 595.492668 164.507909 596.430975 164.792897 C 597.379082 165.076349 598.114666 165.413216 598.624852 165.78542 C 599.135039 166.157624 599.387353 166.550158 599.390057 166.951679 Z M 599.390057 166.951679 " stroke="#1d2b47" stroke-width="1.48" stroke-opacity="1" stroke-miterlimit="10"/><path stroke-linecap="butt" transform="matrix(0.393483, 0, 0, 0.393791, -12.881332, -9.415226)" fill="none" stroke-linejoin="miter" d="M 598.219376 201.678367 C 604.960058 202.680247 613.577013 183.396542 617.488395 158.488423 C 621.399778 133.580304 619.086701 112.54083 612.346019 111.489352 " stroke="#1d2b47" stroke-width="1.48" stroke-opacity="1" stroke-miterlimit="10"/><g clip-path="url(#e9fa3f1c50)"><path fill="#ffffff" d="M 4.433594 111.742188 C 8.804688 116.46875 17.667969 121.09375 26.800781 120.09375 C 35.695312 119.121094 43.375 113.207031 49.625 102.511719 C 58.972656 86.523438 72.351562 76.609375 81.929688 71.105469 C 92.304688 65.144531 100.457031 62.957031 100.816406 62.863281 L 102.601562 69.628906 C 102.523438 69.652344 94.84375 71.734375 85.230469 77.285156 C 76.449219 82.359375 64.199219 91.460938 55.675781 106.03125 C 51.8125 112.660156 47.320312 117.808594 42.28125 121.359375 C 39.664062 123.269531 36.816406 124.726562 33.738281 125.730469 C 30.65625 126.734375 27.5 127.234375 24.257812 127.230469 C 19.214844 127.191406 14.410156 126.097656 9.847656 123.953125 " fill-opacity="1" fill-rule="nonzero"/></g><g clip-path="url(#1c0b2ec7d9)"><path stroke-linecap="butt" transform="matrix(0.393483, 0, 0, 0.393791, -12.881332, -9.415226)" fill="none" stroke-linejoin="miter" d="M 44.004257 307.669306 C 55.11298 319.672024 77.638176 331.416832 100.84836 328.877414 C 123.452975 326.407433 142.970179 311.389157 158.853966 284.229288 C 182.610155 243.628361 216.611387 218.452413 240.953291 204.475694 C 267.320378 189.338383 288.038793 183.783406 288.952111 183.545336 L 293.488918 200.726085 C 293.29037 200.785603 273.773167 206.07275 249.341916 220.168504 C 227.025195 233.054066 195.892972 256.166737 174.231457 293.166849 C 164.413291 310.000413 152.996819 323.074447 140.190516 332.091364 C 133.53918 336.942049 126.302129 340.642061 118.479364 343.191398 C 110.646672 345.740736 102.625359 347.010445 94.385644 347.000525 C 81.569414 346.901329 69.358752 344.123841 57.763587 338.67798 " stroke="#1d2b47" stroke-width="1.48" stroke-opacity="1" stroke-miterlimit="10"/></g><path stroke-linecap="round" transform="matrix(0.393483, 0, 0, 0.393791, -12.881332, -9.415226)" fill-opacity="1" fill="#fc9797" fill-rule="nonzero" stroke-linejoin="miter" d="M 733.251422 170.382025 C 734.194522 171.155754 734.978784 172.058438 735.624063 173.090076 C 736.259415 174.121715 736.716073 175.23271 736.984112 176.423062 C 737.262079 177.613414 737.33157 178.803766 737.202514 180.013958 C 737.083386 181.224149 736.755783 182.384743 736.249487 183.485818 L 729.756989 197.492295 C 729.498878 198.077552 729.141492 198.593371 728.684833 199.039753 C 728.228175 199.496055 727.702024 199.843241 727.106382 200.081311 C 726.520667 200.329301 725.905171 200.458256 725.259892 200.468176 C 724.614613 200.478095 723.999116 200.36898 723.403474 200.140829 C 722.827687 199.912678 722.321391 199.595251 721.864732 199.188547 C 721.418001 198.771924 721.050688 198.295783 720.772722 197.750205 C 720.494756 197.204627 720.32599 196.62929 720.266426 196.024194 C 720.196935 195.409179 720.246571 194.814003 720.395482 194.218827 L 723.661586 164.807209 Z M 733.251422 170.382025 " stroke="#1d2b47" stroke-width="1.48" stroke-opacity="1" stroke-miterlimit="10"/><path stroke-linecap="round" transform="matrix(0.393483, 0, 0, 0.393791, -12.881332, -9.415226)" fill-opacity="1" fill="#fc9797" fill-rule="nonzero" stroke-linejoin="miter" d="M 722.837614 164.221953 C 723.741005 164.767531 724.525267 165.442064 725.200328 166.245551 C 725.875389 167.049039 726.401539 167.941803 726.778779 168.923844 C 727.156019 169.905884 727.364494 170.927603 727.404203 171.979081 C 727.443913 173.020639 727.304929 174.052277 726.997181 175.064077 L 721.001051 194.655289 C 720.822359 195.329822 720.524538 195.944837 720.107588 196.510255 C 719.680712 197.065752 719.174416 197.522054 718.578774 197.889079 C 717.983132 198.246185 717.337853 198.484255 716.652865 198.593371 C 715.967876 198.702487 715.282888 198.682647 714.5979 198.533853 C 713.952621 198.385059 713.347051 198.12715 712.801046 197.760124 C 712.245114 197.393099 711.778527 196.936798 711.39136 196.391219 C 711.004193 195.855561 710.726227 195.260385 710.567389 194.615611 C 710.398623 193.970837 710.358914 193.316143 710.428405 192.661449 L 711.182885 158.161076 Z M 722.837614 164.221953 " stroke="#1d2b47" stroke-width="1.48" stroke-opacity="1" stroke-miterlimit="10"/><path fill="#fc9797" d="M 266.980469 52.847656 C 267.363281 53.050781 267.703125 53.308594 268.007812 53.621094 C 268.308594 53.929688 268.558594 54.28125 268.75 54.667969 C 268.945312 55.054688 269.074219 55.464844 269.144531 55.894531 C 269.210938 56.320312 269.210938 56.75 269.144531 57.179688 L 267.753906 66.191406 C 267.71875 66.464844 267.632812 66.71875 267.496094 66.960938 C 267.359375 67.199219 267.183594 67.402344 266.96875 67.574219 C 266.753906 67.742188 266.511719 67.867188 266.25 67.945312 C 265.988281 68.023438 265.71875 68.046875 265.445312 68.019531 C 264.367188 67.910156 262.601562 65.949219 262.59375 64.871094 L 261.410156 53.917969 C 261.367188 53.5 261.433594 53.101562 261.613281 52.71875 C 261.789062 52.339844 262.054688 52.03125 262.402344 51.796875 C 262.75 51.5625 263.136719 51.433594 263.554688 51.410156 C 263.976562 51.390625 264.371094 51.480469 264.742188 51.675781 Z M 266.980469 52.847656 " fill-opacity="1" fill-rule="nonzero"/><path stroke-linecap="round" transform="matrix(0.393483, 0, 0, 0.393791, -12.881332, -9.415226)" fill="none" stroke-linejoin="miter" d="M 701.186027 152.437466 L 711.192813 158.111478 C 712.165695 158.627298 713.029376 159.281991 713.80371 160.075559 C 714.568118 160.859208 715.203469 161.751972 715.68991 162.734012 C 716.186278 163.716053 716.513881 164.757611 716.692574 165.848767 C 716.861339 166.930004 716.861339 168.02116 716.692574 169.112316 L 713.208068 191.996836 C 713.118722 192.691208 712.90032 193.335982 712.552862 193.950998 C 712.205404 194.556093 711.758673 195.071913 711.212667 195.508375 C 710.666662 195.934918 710.051166 196.252345 709.386032 196.450737 C 708.720898 196.649129 708.03591 196.708647 707.340994 196.639209 C 706.675861 196.569772 706.050437 196.391219 705.454795 196.093631 C 704.859153 195.796043 704.34293 195.399259 703.896198 194.913199 C 703.449466 194.417219 703.102009 193.861721 702.853824 193.246706 C 702.615568 192.621771 702.486512 191.986917 702.476585 191.322303 L 702.943171 168.388185 " stroke="#1d2b47" stroke-width="1.48" stroke-opacity="1" stroke-miterlimit="10"/><path fill="#fc9797" d="M 263.035156 50.730469 C 263.417969 50.9375 263.761719 51.195312 264.0625 51.503906 C 264.367188 51.816406 264.613281 52.164062 264.808594 52.554688 C 265 52.941406 265.132812 53.351562 265.199219 53.777344 C 265.265625 54.207031 265.265625 54.636719 265.199219 55.0625 L 263.8125 64.0625 C 263.773438 64.335938 263.6875 64.589844 263.550781 64.828125 C 263.414062 65.066406 263.238281 65.269531 263.023438 65.441406 C 262.808594 65.609375 262.566406 65.734375 262.304688 65.8125 C 262.039062 65.886719 261.773438 65.914062 261.5 65.886719 C 260.425781 65.777344 259.097656 63.566406 259.089844 62.480469 L 259.878906 55.195312 L 258.933594 52.585938 Z M 263.035156 50.730469 " fill-opacity="1" fill-rule="nonzero"/><path stroke-linecap="round" transform="matrix(0.393483, 0, 0, 0.393791, -12.881332, -9.415226)" fill="none" stroke-linejoin="miter" d="M 701.215809 152.735054 C 702.188691 153.260793 703.062299 153.915487 703.826706 154.699135 C 704.601041 155.492704 705.226465 156.375548 705.722834 157.367508 C 706.209275 158.349549 706.546805 159.391107 706.71557 160.472343 C 706.884335 161.5635 706.884335 162.654656 706.71557 163.735892 L 703.191355 186.590653 C 703.092081 187.285026 702.873679 187.9298 702.526221 188.534895 C 702.178763 189.139991 701.732032 189.65581 701.186027 190.092273 C 700.640022 190.518816 700.024525 190.836243 699.359391 191.034635 C 698.68433 191.223107 698.009269 191.292544 697.314354 191.223107 C 696.64922 191.15367 696.023796 190.975117 695.428154 190.677529 C 694.832512 190.379941 694.316289 189.983157 693.869557 189.497097 C 693.422826 189.001117 693.075368 188.445619 692.827184 187.830604 C 692.588927 187.215588 692.469799 186.570814 692.459871 185.906201 L 692.91653 162.982002 " stroke="#1d2b47" stroke-width="1.48" stroke-opacity="1" stroke-miterlimit="10"/><path stroke-linecap="round" transform="matrix(0.393483, 0, 0, 0.393791, -12.881332, -9.415226)" fill-opacity="1" fill="#fc9797" fill-rule="nonzero" stroke-linejoin="miter" d="M 724.187736 207.82852 C 711.490634 194.754485 693.313625 196.996315 693.313625 196.996315 L 698.972224 183.704049 C 699.468592 182.543456 699.726704 181.333265 699.746559 180.073475 C 699.766413 178.813686 699.548011 177.593575 699.091352 176.423062 C 698.644621 175.24263 697.979487 174.191152 697.125734 173.278549 C 696.262053 172.356026 695.259389 171.631895 694.107814 171.106156 L 691.278514 169.806688 L 676.744849 192.929279 C 675.623057 194.685048 674.987705 196.589611 674.809013 198.652889 C 674.63032 200.726085 674.938068 202.719925 675.742185 204.634408 L 679.603931 214.633366 C 682.28432 221.537409 685.997155 227.826436 690.762291 233.500448 " stroke="#1d2b47" stroke-width="1.48" stroke-opacity="1" stroke-miterlimit="10"/><path stroke-linecap="round" transform="matrix(0.393483, 0, 0, 0.393791, -12.881332, -9.415226)" fill-opacity="1" fill="#fc9797" fill-rule="nonzero" stroke-linejoin="miter" d="M 215.896617 209.078389 C 215.0925 209.990993 214.457149 211.002792 213.980635 212.123707 C 213.514049 213.244622 213.236083 214.415135 213.146736 215.625326 C 213.067317 216.835518 213.176518 218.035789 213.494194 219.206302 C 213.801942 220.386735 214.298311 221.477891 214.973372 222.48969 L 223.481125 235.305815 C 223.828583 235.851393 224.25546 236.307695 224.78161 236.68464 C 225.297833 237.061585 225.873621 237.319494 226.489118 237.478208 C 227.114542 237.627002 227.739966 237.66668 228.385245 237.577404 C 229.020596 237.488127 229.616238 237.289735 230.172171 236.972308 C 230.698321 236.664801 231.15498 236.268016 231.53222 235.791876 C 231.919387 235.315735 232.207281 234.789996 232.395901 234.214659 C 232.584521 233.629403 232.66394 233.034226 232.634158 232.429131 C 232.604376 231.814116 232.47532 231.228859 232.227136 230.673361 L 224.573136 202.075151 Z M 215.896617 209.078389 " stroke="#1d2b47" stroke-width="1.48" stroke-opacity="1" stroke-miterlimit="10"/><path stroke-linecap="round" transform="matrix(0.393483, 0, 0, 0.393791, -12.881332, -9.415226)" fill-opacity="1" fill="#fc9797" fill-rule="nonzero" stroke-linejoin="miter" d="M 225.258124 201.420457 C 224.454007 202.09499 223.778946 202.878639 223.232941 203.781322 C 222.686936 204.674087 222.299769 205.636288 222.081367 206.667926 C 221.853037 207.689645 221.8034 208.731203 221.932456 209.772762 C 222.051584 210.81432 222.339478 211.816199 222.796137 212.758562 L 231.661276 231.228859 C 231.939242 231.873633 232.326409 232.43905 232.822778 232.925111 C 233.329073 233.411171 233.894933 233.788116 234.540212 234.055945 C 235.185491 234.323775 235.860552 234.462649 236.555468 234.472569 C 237.250383 234.482488 237.925444 234.353533 238.580651 234.095624 C 239.196147 233.857553 239.75208 233.510367 240.238521 233.063985 C 240.734889 232.617603 241.131984 232.091864 241.429805 231.506608 C 241.727626 230.911432 241.906319 230.286497 241.97581 229.621884 C 242.035374 228.95727 241.985737 228.312496 241.807045 227.667722 L 235.870479 193.673249 Z M 225.258124 201.420457 " stroke="#1d2b47" stroke-width="1.48" stroke-opacity="1" stroke-miterlimit="10"/><path fill="#fc9797" d="M 79.90625 66.835938 C 79.558594 67.09375 79.257812 67.398438 79.007812 67.753906 C 78.753906 68.105469 78.5625 68.488281 78.429688 68.902344 C 78.296875 69.3125 78.226562 69.738281 78.226562 70.171875 C 78.226562 70.605469 78.289062 71.027344 78.417969 71.441406 L 81.148438 80.105469 C 81.226562 80.367188 81.351562 80.609375 81.519531 80.824219 C 81.691406 81.039062 81.894531 81.214844 82.132812 81.351562 C 82.371094 81.484375 82.628906 81.570312 82.898438 81.609375 C 83.171875 81.644531 83.441406 81.628906 83.707031 81.5625 C 84.757812 81.289062 86.207031 79.085938 86.066406 78.019531 L 85.5625 67.019531 C 85.542969 66.597656 85.417969 66.214844 85.183594 65.863281 C 84.953125 65.515625 84.644531 65.25 84.265625 65.070312 C 83.886719 64.890625 83.484375 64.824219 83.066406 64.867188 C 82.648438 64.90625 82.273438 65.054688 81.9375 65.304688 Z M 79.90625 66.835938 " fill-opacity="1" fill-rule="nonzero"/><path stroke-linecap="round" transform="matrix(0.393483, 0, 0, 0.393791, -12.881332, -9.415226)" fill="none" stroke-linejoin="miter" d="M 244.894456 186.511297 L 235.810915 193.63357 C 234.927379 194.288264 234.162972 195.061993 233.527621 195.964677 C 232.882342 196.857441 232.395901 197.829562 232.05837 198.881039 C 231.72084 199.922598 231.542147 201.003834 231.542147 202.10491 C 231.542147 203.205986 231.700985 204.277302 232.028588 205.32878 L 238.967818 227.330456 C 239.166365 227.995069 239.484041 228.610084 239.910918 229.155662 C 240.347722 229.70124 240.863945 230.147622 241.469514 230.494809 C 242.075084 230.832075 242.73029 231.050306 243.415278 231.149502 C 244.110194 231.238779 244.795182 231.1991 245.470243 231.030467 C 246.115522 230.861834 246.711164 230.584085 247.247242 230.197221 C 247.793247 229.820276 248.249906 229.344135 248.617219 228.788637 C 248.984531 228.243059 249.242643 227.637963 249.391553 226.993189 C 249.540464 226.338496 249.560318 225.683802 249.470972 225.029108 L 245.539735 202.432257 " stroke="#1d2b47" stroke-width="1.48" stroke-opacity="1" stroke-miterlimit="10"/><path fill="#fc9797" d="M 83.484375 64.148438 C 83.136719 64.410156 82.835938 64.714844 82.585938 65.066406 C 82.332031 65.421875 82.140625 65.804688 82.007812 66.214844 C 81.875 66.628906 81.808594 67.050781 81.804688 67.484375 C 81.804688 67.917969 81.871094 68.34375 82 68.757812 L 84.726562 77.441406 C 84.804688 77.707031 84.929688 77.945312 85.097656 78.160156 C 85.269531 78.375 85.476562 78.550781 85.714844 78.6875 C 85.953125 78.824219 86.207031 78.910156 86.480469 78.945312 C 86.753906 78.980469 87.023438 78.964844 87.289062 78.894531 C 88.339844 78.628906 89.308594 76.238281 89.15625 75.167969 L 87.277344 68.078125 L 87.816406 65.359375 Z M 83.484375 64.148438 " fill-opacity="1" fill-rule="nonzero"/><path stroke-linecap="round" transform="matrix(0.393483, 0, 0, 0.393791, -12.881332, -9.415226)" fill="none" stroke-linejoin="miter" d="M 244.904383 186.808885 C 244.020848 187.473498 243.25644 188.247227 242.621089 189.139991 C 241.97581 190.042675 241.489369 191.014796 241.151839 192.056354 C 240.814308 193.107831 240.645543 194.179148 240.635616 195.280224 C 240.635616 196.3813 240.804381 197.462536 241.131984 198.514014 L 248.061286 220.565288 C 248.259833 221.239821 248.577509 221.844916 249.004386 222.390494 C 249.44119 222.936072 249.967341 223.382454 250.57291 223.72964 C 251.178479 224.076827 251.823758 224.295058 252.518674 224.384334 C 253.21359 224.473611 253.898578 224.433932 254.573639 224.255379 C 255.218918 224.096666 255.804632 223.818917 256.350638 223.432052 C 256.896643 223.055108 257.353302 222.578967 257.720614 222.023469 C 258.087927 221.477891 258.346038 220.872795 258.494949 220.218102 C 258.643859 219.573328 258.663714 218.918634 258.574368 218.26394 L 254.653058 195.667089 " stroke="#1d2b47" stroke-width="1.48" stroke-opacity="1" stroke-miterlimit="10"/><path stroke-linecap="round" transform="matrix(0.393483, 0, 0, 0.393791, -12.881332, -9.415226)" fill-opacity="1" fill="#fc9797" fill-rule="nonzero" stroke-linejoin="miter" d="M 230.509701 244.739356 C 241.092274 229.889713 259.398339 229.363974 259.398339 229.363974 L 251.803903 217.073588 C 251.13877 216.002271 250.701966 214.841678 250.493491 213.601728 C 250.275089 212.361777 250.304871 211.121827 250.582837 209.891797 C 250.850876 208.661766 251.337317 207.530932 252.052088 206.489374 C 252.766858 205.447815 253.650394 204.58481 254.702695 203.890438 L 257.303665 202.174347 L 275.172925 222.836876 C 276.523047 224.404173 277.446292 226.199621 277.922806 228.2133 C 278.39932 230.226979 278.389392 232.240658 277.883097 234.254337 L 275.57002 244.689758 C 273.961787 251.911228 271.231761 258.676396 267.38987 264.995182 " stroke="#1d2b47" stroke-width="1.48" stroke-opacity="1" stroke-miterlimit="10"/><path stroke-linecap="butt" transform="matrix(0.374752, -0.120053, 0.119959, 0.375045, -28.290104, 32.381742)" fill-opacity="1" fill="#fcb332" fill-rule="nonzero" stroke-linejoin="miter" d="M 323.22909 132.819949 L 362.994574 132.82134 L 362.999267 224.113983 L 323.233783 224.112592 C 321.733184 224.111356 320.2443 224.040961 318.760699 223.888935 C 317.264619 223.743329 315.792732 223.522144 314.323104 223.228775 C 312.862931 222.938432 311.405018 222.575905 309.980752 222.140824 C 308.544008 221.712165 307.140911 221.210953 305.762007 220.634162 C 304.38008 220.066819 303.0318 219.426922 301.714143 218.723921 C 300.387032 218.017893 299.112479 217.245366 297.865525 216.41918 C 296.621595 215.583548 295.424174 214.70031 294.269856 213.747547 C 293.115538 212.794783 292.007729 211.794415 290.949453 210.736994 C 289.891177 209.679574 288.888866 208.577575 287.945542 207.42155 C 286.992763 206.262499 286.105404 205.061896 285.270983 203.826162 C 284.439588 202.580981 283.67361 201.294248 282.970028 199.975411 C 282.266445 198.656573 281.625257 197.305631 281.055918 195.925611 C 280.48658 194.545591 279.976611 193.142915 279.547947 191.714186 C 279.109828 190.282431 278.749989 188.834073 278.458976 187.366083 C 278.167962 185.898094 277.942749 184.419921 277.802247 182.937618 C 277.655315 181.442842 277.580614 179.950356 277.578145 178.460161 C 277.5787 176.960518 277.657917 175.47564 277.799912 173.990027 C 277.94493 172.494965 278.165587 171.024116 278.458476 169.555558 C 278.751364 168.087 279.110436 166.639627 279.54817 165.207018 C 279.982881 163.783858 280.486798 162.372435 281.053876 160.991645 C 281.630408 159.613881 282.270099 158.266751 282.975974 156.940806 C 283.678824 155.624308 284.44181 154.347891 285.27741 153.105133 C 286.103555 151.859349 286.999291 150.656671 287.942682 149.500494 C 288.895528 148.347344 289.896031 147.240695 290.953645 146.183574 C 292.011258 145.126453 293.113504 144.12528 294.269837 143.183083 C 295.429194 142.231438 296.630159 141.345188 297.866301 140.511861 C 299.111898 139.681561 300.399104 138.916656 301.709007 138.211095 C 303.03139 137.499112 304.379877 136.868394 305.763542 136.290597 C 307.144183 135.722248 308.547522 135.213242 309.976966 134.7855 C 311.409435 134.348311 312.858553 133.98936 314.327346 133.699198 C 315.786684 133.406011 317.265697 133.181613 318.758335 133.044901 C 320.244543 132.895715 321.737947 132.82174 323.22909 132.819949 Z M 323.22909 132.819949 " stroke="#1d2b47" stroke-width="1.48" stroke-opacity="1" stroke-miterlimit="10"/><path stroke-linecap="butt" transform="matrix(0.374752, -0.120053, 0.119959, 0.375045, -25.96857, 37.020675)" fill-opacity="1" fill="#cfedff" fill-rule="nonzero" stroke-linejoin="miter" d="M 373.279915 165.448033 C 373.278805 168.447318 373.205081 171.412944 373.043239 174.360779 C 372.884422 177.299166 372.649202 180.150604 372.337578 182.915092 C 372.032386 185.692055 371.650025 188.319331 371.196928 190.809394 C 370.753285 193.302483 370.235116 195.60507 369.658307 197.732655 C 369.084521 199.850792 368.467216 201.74669 367.790505 203.404849 C 367.120225 205.075481 366.399612 206.480032 365.65703 207.62758 C 364.904994 208.772102 364.137037 209.640727 363.337274 210.217954 C 362.543942 210.807655 361.740738 211.102565 360.927662 211.102683 C 360.114585 211.1028 359.313571 210.804732 358.518569 210.227372 C 357.726592 209.640564 356.953107 208.768045 356.204545 207.622287 C 355.455982 206.476529 354.738774 205.070006 354.071828 203.408772 C 353.395428 201.744511 352.772697 199.847461 352.200612 197.727067 C 351.628526 195.606673 351.113899 193.306779 350.662779 190.80849 C 350.208635 188.319648 349.831241 185.688728 349.518119 182.922149 C 349.208021 180.146124 348.975438 177.290757 348.820371 174.356048 C 348.655848 171.418314 348.575654 168.44508 348.576764 165.445795 C 348.57485 162.455957 348.661053 159.48391 348.819871 156.545523 C 348.978688 153.607136 349.204453 150.752672 349.519101 147.978736 C 349.830724 145.214247 350.216109 142.577524 350.659751 140.084434 C 351.112849 137.594371 351.621563 135.288758 352.195348 133.17062 C 352.769134 131.052483 353.395894 129.159611 354.066174 127.488979 C 354.742885 125.830821 355.454043 124.423244 356.206079 123.278722 C 356.948661 122.131173 357.726073 121.265575 358.519405 120.675874 C 359.312737 120.086173 360.122372 119.803737 360.925993 119.800593 C 361.73907 119.800475 362.543108 120.089096 363.335086 120.675904 C 364.136518 121.265737 364.903572 122.125783 365.652135 123.271541 C 366.410152 124.420326 367.117906 125.823822 367.791282 127.49753 C 368.467682 129.16179 369.093437 131.049394 369.665522 133.169788 C 370.237608 135.290181 370.74921 137.599523 371.203355 140.088365 C 371.64502 142.583627 372.034893 145.208127 372.335536 147.981126 C 372.648658 150.747704 372.881241 153.603071 373.045763 156.540806 C 373.197807 159.484962 373.281025 162.448748 373.279915 165.448033 Z M 373.279915 165.448033 " stroke="#1d2b47" stroke-width="1.48" stroke-opacity="1" stroke-miterlimit="10"/><path stroke-linecap="butt" transform="matrix(0.393483, 0, 0, 0.393791, -12.881332, -9.415226)" fill="none" stroke-linejoin="miter" d="M 363.000342 212.718883 C 356.497916 214.801999 345.002025 197.016154 337.308316 173.010719 C 329.624534 148.995365 328.661579 127.846775 335.164004 125.773578 " stroke="#1d2b47" stroke-width="1.48" stroke-opacity="1" stroke-miterlimit="10"/><path stroke-linecap="butt" transform="matrix(0.374752, -0.120053, 0.119959, 0.375045, -23.442471, 37.823867)" fill-opacity="1" fill="#1d2b47" fill-rule="nonzero" stroke-linejoin="miter" d="M 358.737308 138.403746 L 382.586539 138.403444 C 383.587946 138.401119 384.54778 138.593794 385.469066 138.972024 C 386.390351 139.350253 387.203879 139.902297 387.906245 140.606235 C 388.608611 141.310173 389.152157 142.119504 389.533859 143.043676 C 389.918586 143.958399 390.109316 144.925594 390.115122 145.916917 C 390.108449 146.914661 389.916086 147.873796 389.538035 148.794323 C 389.156959 149.724297 388.617412 150.530636 387.91032 151.241681 C 387.206252 151.94328 386.387198 152.483086 385.472066 152.867152 C 384.547479 153.248191 383.589209 153.441387 382.587802 153.443712 L 358.738571 153.444014 C 357.740188 153.436892 356.780354 153.244216 355.859069 152.865987 C 354.937784 152.487758 354.130686 151.948188 353.418865 151.241223 C 352.719524 150.527837 352.175978 149.718506 351.794275 148.794335 C 351.409548 147.879611 351.218818 146.912417 351.222467 145.92412 C 351.219686 144.92335 351.412048 143.964214 351.790099 143.043688 C 352.168151 142.123161 352.720177 141.310402 353.427269 140.599356 C 354.131337 139.897757 354.940937 139.354925 355.865524 138.973886 C 356.780656 138.589819 357.738925 138.396624 358.737308 138.403746 Z M 358.737308 138.403746 " stroke="#1d2b47" stroke-width="1.48" stroke-opacity="1" stroke-miterlimit="10"/><path stroke-linecap="butt" transform="matrix(0.374752, -0.120053, 0.119959, 0.375045, -26.78698, 39.501545)" fill-opacity="1" fill="#1d2b47" fill-rule="nonzero" stroke-linejoin="miter" d="M 368.126695 167.724017 L 391.985381 167.726741 C 392.974309 167.730837 393.934143 167.923512 394.855428 168.301741 C 395.776714 168.67997 396.593266 169.222567 397.292608 169.935953 C 398.004428 170.642918 398.547974 171.452249 398.929677 172.37642 C 399.314404 173.291144 399.495679 174.255312 399.501485 175.246635 C 399.504266 176.247405 399.311904 177.206541 398.924398 178.124041 C 398.546346 179.044567 398.003775 179.860354 397.296683 180.571399 C 396.592615 181.272998 395.783015 181.81583 394.858428 182.196869 C 393.933842 182.577909 392.975572 182.771105 391.977189 182.763982 L 368.127958 182.764285 C 367.136006 182.769636 366.176172 182.576961 365.254886 182.198732 C 364.333601 181.820502 363.520073 181.268458 362.817707 180.56452 C 362.105887 179.857555 361.562341 179.048224 361.180638 178.124053 C 360.795911 177.209329 360.614636 176.245161 360.60883 175.253838 C 360.606048 174.253067 360.798411 173.293932 361.185917 172.376432 C 361.563968 171.455905 362.10654 170.640119 362.813632 169.929074 C 363.5177 169.227475 364.3273 168.684643 365.251886 168.303603 C 366.176473 167.922564 367.134743 167.729368 368.126695 167.724017 Z M 368.126695 167.724017 " stroke="#1d2b47" stroke-width="1.48" stroke-opacity="1" stroke-miterlimit="10"/><path stroke-linecap="butt" transform="matrix(0.374752, -0.120053, 0.119959, 0.375045, -23.249648, 38.209901)" fill-opacity="1" fill="#ffffff" fill-rule="nonzero" stroke-linejoin="miter" d="M 362.116734 137.310513 L 385.965965 137.31021 C 386.967372 137.307885 387.927207 137.500561 388.848492 137.87879 C 389.766753 138.266466 390.583306 138.809063 391.285671 139.513001 C 391.988037 140.21694 392.541038 141.029297 392.913286 141.950442 C 393.294988 142.874613 393.488742 143.83236 393.491524 144.833131 C 393.487875 145.821427 393.304967 146.783589 392.914437 147.710537 C 392.536386 148.631063 391.993814 149.446849 391.289746 150.148448 C 390.585678 150.850046 389.7636 151.399299 388.851492 151.773918 C 387.926905 152.154958 386.968635 152.348153 385.967228 152.350478 L 362.117997 152.350781 C 361.11659 152.353106 360.166211 152.163456 359.238495 151.772753 C 358.31721 151.394524 357.510112 150.854954 356.798291 150.147989 C 356.095926 149.444051 355.555404 148.625273 355.170677 147.710549 C 354.788974 146.786378 354.59522 145.828631 354.601893 144.830886 C 354.599112 143.830116 354.791474 142.870981 355.169525 141.950454 C 355.557032 141.032954 356.099603 140.217168 356.803671 139.515569 C 357.510763 138.804524 358.320363 138.261691 359.24495 137.880652 C 360.160082 137.496586 361.127806 137.306417 362.116734 137.310513 Z M 362.116734 137.310513 " stroke="#1d2b47" stroke-width="1.48" stroke-opacity="1" stroke-miterlimit="10"/><path stroke-linecap="butt" transform="matrix(0.374752, -0.120053, 0.119959, 0.375045, -26.570582, 39.875652)" fill-opacity="1" fill="#ffffff" fill-rule="nonzero" stroke-linejoin="miter" d="M 371.462872 166.47168 L 395.312103 166.471377 C 396.304056 166.466026 397.26389 166.658701 398.185175 167.03693 C 399.112891 167.427633 399.919989 167.967204 400.631809 168.674169 C 401.334175 169.378107 401.877721 170.187438 402.259424 171.111609 C 402.641126 172.03578 402.83488 172.993527 402.828207 173.991271 C 402.830989 174.992042 402.638627 175.951177 402.260575 176.871704 C 401.873069 177.789204 401.330497 178.60499 400.626429 179.306588 C 399.922362 180.008187 399.109738 180.560466 398.185151 180.941506 C 397.263588 181.313098 396.305319 181.506294 395.313366 181.511645 L 371.464135 181.511948 C 370.462728 181.514273 369.502894 181.321597 368.584633 180.933921 C 367.663348 180.555692 366.846795 180.013095 366.144429 179.309156 C 365.432609 178.602192 364.892087 177.783413 364.50736 176.86869 C 364.135112 175.947545 363.941358 174.989798 363.938577 173.989027 C 363.94525 172.991283 364.128157 172.029121 364.515664 171.111621 C 364.893715 170.191095 365.436287 169.375308 366.140354 168.67371 C 366.847446 167.962664 367.657046 167.419832 368.581633 167.038792 C 369.50622 166.657753 370.461465 166.474005 371.462872 166.47168 Z M 371.462872 166.47168 " stroke="#1d2b47" stroke-width="1.48" stroke-opacity="1" stroke-miterlimit="10"/><path stroke-linecap="butt" transform="matrix(0.393483, 0, 0, 0.393791, -12.881332, -9.415226)" fill-opacity="1" fill="#fcb332" fill-rule="nonzero" stroke-linejoin="miter" d="M 463.673771 25.000349 L 439.262375 76.046617 L 479.954653 76.046617 L 459.970863 125.624784 L 511.027311 58.290531 L 472.548837 58.290531 L 488.829719 25.000349 Z M 463.673771 25.000349 " stroke="#1d2b47" stroke-width="1.48" stroke-opacity="1" stroke-miterlimit="10"/><path stroke-linecap="butt" transform="matrix(0.393483, 0, 0, 0.393791, -12.881332, -9.415226)" fill-opacity="1" fill="#cfedff" fill-rule="nonzero" stroke-linejoin="miter" d="M 561.32928 487.4224 L 411.148072 487.4224 C 406.789958 487.4224 403.603273 481.936861 404.695283 476.342206 L 405.87664 470.340847 C 406.641047 466.452363 409.291654 463.734393 412.329428 463.734393 L 560.147923 463.734393 C 563.145988 463.734393 565.836305 466.452363 566.600712 470.340847 L 567.782069 476.342206 C 568.884006 481.936861 565.687394 487.4224 561.32928 487.4224 Z M 561.32928 487.4224 " stroke="#1d2b47" stroke-width="1.48" stroke-opacity="1" stroke-miterlimit="10"/></svg>