<svg xmlns="http://www.w3.org/2000/svg" xmlns:xlink="http://www.w3.org/1999/xlink" width="400" zoomAndPan="magnify" viewBox="0 0 300 60" height="80" preserveAspectRatio="xMidYMid meet" version="1.0"><defs><g/><clipPath id="50e0e14be7"><path d="M 0 0.722656 L 56 0.722656 L 56 57 L 0 57 Z M 0 0.722656 " clip-rule="nonzero"/></clipPath></defs><g clip-path="url(#50e0e14be7)"><path fill="#3a5a98" d="M 0 28.589844 C 0 13.203125 12.488281 0.722656 27.890625 0.722656 C 43.289062 0.722656 55.769531 13.203125 55.769531 28.589844 C 55.769531 43.980469 43.277344 56.460938 27.890625 56.460938 C 12.488281 56.460938 0 43.980469 0 28.589844 " fill-opacity="1" fill-rule="nonzero"/></g><path fill="#345387" d="M 47.605469 8.929688 C 58.5 19.8125 58.5 37.460938 47.605469 48.34375 C 36.714844 59.222656 19.066406 59.222656 8.171875 48.34375 Z M 47.605469 8.929688 " fill-opacity="1" fill-rule="nonzero"/><path fill="#2e4d72" d="M 55.589844 31.726562 L 35.421875 11.574219 L 24.945312 22.039062 L 25.5625 22.65625 L 19.605469 28.613281 L 24.484375 33.492188 L 23.84375 34.132812 L 29.125 39.417969 L 23.035156 45.5 L 33.441406 55.898438 C 45.179688 53.535156 54.238281 43.800781 55.589844 31.726562 " fill-opacity="1" fill-rule="nonzero"/><path fill="#ffffff" d="M 23.011719 18.238281 L 23.011719 22.914062 L 19.582031 22.914062 L 19.582031 28.625 L 23.011719 28.625 L 23.011719 45.609375 L 30.046875 45.609375 L 30.046875 28.625 L 34.769531 28.625 C 34.769531 28.625 35.207031 25.882812 35.421875 22.890625 C 34.804688 22.890625 30.070312 22.890625 30.070312 22.890625 C 30.070312 22.890625 30.070312 19.566406 30.070312 18.980469 C 30.070312 18.394531 30.835938 17.609375 31.597656 17.609375 L 35.433594 17.609375 C 35.433594 16.832031 35.433594 14.148438 35.433594 11.664062 C 33.453125 11.664062 31.207031 11.664062 30.214844 11.664062 C 22.84375 11.664062 23.011719 17.382812 23.011719 18.238281 " fill-opacity="1" fill-rule="nonzero"/><g fill="#ffffff" fill-opacity="1"><g transform="translate(67.530408, 36.940039)"><g><path d="M 0.640625 -3.28125 L 7.671875 -11.59375 L 1.078125 -11.59375 L 1.078125 -15.40625 L 13.46875 -15.40625 L 13.46875 -12.125 L 6.46875 -3.8125 L 13.734375 -3.8125 L 13.734375 0 L 0.640625 0 Z M 0.640625 -3.28125 "/></g></g></g><g fill="#ffffff" fill-opacity="1"><g transform="translate(81.992496, 36.940039)"><g><path d="M 8.984375 0.296875 C 7.597656 0.296875 6.382812 0.078125 5.34375 -0.359375 C 4.300781 -0.804688 3.421875 -1.394531 2.703125 -2.125 C 1.992188 -2.851562 1.457031 -3.703125 1.09375 -4.671875 C 0.738281 -5.640625 0.5625 -6.648438 0.5625 -7.703125 C 0.5625 -8.753906 0.738281 -9.765625 1.09375 -10.734375 C 1.457031 -11.703125 1.992188 -12.550781 2.703125 -13.28125 C 3.421875 -14.007812 4.300781 -14.59375 5.34375 -15.03125 C 6.382812 -15.46875 7.597656 -15.6875 8.984375 -15.6875 C 10.347656 -15.6875 11.554688 -15.46875 12.609375 -15.03125 C 13.671875 -14.59375 14.554688 -14.007812 15.265625 -13.28125 C 15.984375 -12.550781 16.519531 -11.703125 16.875 -10.734375 C 17.238281 -9.765625 17.421875 -8.753906 17.421875 -7.703125 C 17.421875 -6.648438 17.238281 -5.640625 16.875 -4.671875 C 16.519531 -3.703125 15.984375 -2.851562 15.265625 -2.125 C 14.554688 -1.394531 13.671875 -0.804688 12.609375 -0.359375 C 11.554688 0.078125 10.347656 0.296875 8.984375 0.296875 Z M 6.265625 -7.703125 C 6.265625 -6.671875 6.515625 -5.859375 7.015625 -5.265625 C 7.523438 -4.679688 8.179688 -4.390625 8.984375 -4.390625 C 9.785156 -4.390625 10.441406 -4.679688 10.953125 -5.265625 C 11.460938 -5.859375 11.71875 -6.671875 11.71875 -7.703125 C 11.71875 -8.734375 11.460938 -9.539062 10.953125 -10.125 C 10.441406 -10.71875 9.785156 -11.015625 8.984375 -11.015625 C 8.179688 -11.015625 7.523438 -10.71875 7.015625 -10.125 C 6.515625 -9.539062 6.265625 -8.734375 6.265625 -7.703125 Z M 6.265625 -7.703125 "/></g></g></g><g fill="#ffffff" fill-opacity="1"><g transform="translate(99.967649, 36.940039)"><g><path d="M 8.984375 0.296875 C 7.597656 0.296875 6.382812 0.078125 5.34375 -0.359375 C 4.300781 -0.804688 3.421875 -1.394531 2.703125 -2.125 C 1.992188 -2.851562 1.457031 -3.703125 1.09375 -4.671875 C 0.738281 -5.640625 0.5625 -6.648438 0.5625 -7.703125 C 0.5625 -8.753906 0.738281 -9.765625 1.09375 -10.734375 C 1.457031 -11.703125 1.992188 -12.550781 2.703125 -13.28125 C 3.421875 -14.007812 4.300781 -14.59375 5.34375 -15.03125 C 6.382812 -15.46875 7.597656 -15.6875 8.984375 -15.6875 C 10.347656 -15.6875 11.554688 -15.46875 12.609375 -15.03125 C 13.671875 -14.59375 14.554688 -14.007812 15.265625 -13.28125 C 15.984375 -12.550781 16.519531 -11.703125 16.875 -10.734375 C 17.238281 -9.765625 17.421875 -8.753906 17.421875 -7.703125 C 17.421875 -6.648438 17.238281 -5.640625 16.875 -4.671875 C 16.519531 -3.703125 15.984375 -2.851562 15.265625 -2.125 C 14.554688 -1.394531 13.671875 -0.804688 12.609375 -0.359375 C 11.554688 0.078125 10.347656 0.296875 8.984375 0.296875 Z M 6.265625 -7.703125 C 6.265625 -6.671875 6.515625 -5.859375 7.015625 -5.265625 C 7.523438 -4.679688 8.179688 -4.390625 8.984375 -4.390625 C 9.785156 -4.390625 10.441406 -4.679688 10.953125 -5.265625 C 11.460938 -5.859375 11.71875 -6.671875 11.71875 -7.703125 C 11.71875 -8.734375 11.460938 -9.539062 10.953125 -10.125 C 10.441406 -10.71875 9.785156 -11.015625 8.984375 -11.015625 C 8.179688 -11.015625 7.523438 -10.71875 7.015625 -10.125 C 6.515625 -9.539062 6.265625 -8.734375 6.265625 -7.703125 Z M 6.265625 -7.703125 "/></g></g></g><g fill="#ffffff" fill-opacity="1"><g transform="translate(117.942802, 36.940039)"><g><path d="M 26.234375 0 L 20.671875 0 L 20.671875 -8.671875 C 20.671875 -9.429688 20.519531 -9.976562 20.21875 -10.3125 C 19.914062 -10.65625 19.550781 -10.828125 19.125 -10.828125 C 18.675781 -10.828125 18.203125 -10.625 17.703125 -10.21875 C 17.203125 -9.8125 16.835938 -9.285156 16.609375 -8.640625 L 16.609375 0 L 11.03125 0 L 11.03125 -8.671875 C 11.03125 -9.429688 10.878906 -9.976562 10.578125 -10.3125 C 10.273438 -10.65625 9.910156 -10.828125 9.484375 -10.828125 C 9.035156 -10.828125 8.5625 -10.625 8.0625 -10.21875 C 7.5625 -9.8125 7.195312 -9.285156 6.96875 -8.640625 L 6.96875 0 L 1.40625 0 L 1.40625 -15.40625 L 6.40625 -15.40625 L 6.40625 -13.125 C 6.957031 -13.957031 7.710938 -14.59375 8.671875 -15.03125 C 9.628906 -15.46875 10.757812 -15.6875 12.0625 -15.6875 C 12.6875 -15.6875 13.234375 -15.613281 13.703125 -15.46875 C 14.171875 -15.320312 14.578125 -15.125 14.921875 -14.875 C 15.265625 -14.625 15.535156 -14.34375 15.734375 -14.03125 C 15.941406 -13.71875 16.101562 -13.382812 16.21875 -13.03125 C 16.769531 -13.875 17.515625 -14.523438 18.453125 -14.984375 C 19.398438 -15.453125 20.484375 -15.6875 21.703125 -15.6875 C 22.710938 -15.6875 23.515625 -15.492188 24.109375 -15.109375 C 24.703125 -14.734375 25.15625 -14.265625 25.46875 -13.703125 C 25.78125 -13.140625 25.984375 -12.535156 26.078125 -11.890625 C 26.179688 -11.242188 26.234375 -10.65625 26.234375 -10.125 Z M 26.234375 0 "/></g></g></g><g fill="#ffffff" fill-opacity="1"><g transform="translate(145.461757, 36.940039)"><g><path d="M 11.859375 -10.65625 C 10.785156 -10.65625 9.804688 -10.535156 8.921875 -10.296875 C 8.046875 -10.066406 7.394531 -9.679688 6.96875 -9.140625 L 6.96875 0 L 1.40625 0 L 1.40625 -15.40625 L 6.5 -15.40625 L 6.5 -12.46875 C 7.039062 -13.507812 7.71875 -14.304688 8.53125 -14.859375 C 9.34375 -15.410156 10.21875 -15.6875 11.15625 -15.6875 C 11.53125 -15.6875 11.765625 -15.679688 11.859375 -15.671875 Z M 11.859375 -10.65625 "/></g></g></g><g fill="#ffffff" fill-opacity="1"><g transform="translate(157.66963, 36.940039)"><g><path d="M 5.9375 0.296875 C 5.175781 0.296875 4.460938 0.171875 3.796875 -0.078125 C 3.140625 -0.335938 2.570312 -0.6875 2.09375 -1.125 C 1.613281 -1.5625 1.238281 -2.082031 0.96875 -2.6875 C 0.695312 -3.300781 0.5625 -3.957031 0.5625 -4.65625 C 0.5625 -5.4375 0.722656 -6.148438 1.046875 -6.796875 C 1.378906 -7.441406 1.835938 -8 2.421875 -8.46875 C 3.015625 -8.9375 3.710938 -9.296875 4.515625 -9.546875 C 5.328125 -9.796875 6.222656 -9.921875 7.203125 -9.921875 C 8.453125 -9.921875 9.488281 -9.726562 10.3125 -9.34375 L 10.3125 -9.8125 C 10.3125 -10.53125 10.097656 -11.066406 9.671875 -11.421875 C 9.253906 -11.773438 8.578125 -11.953125 7.640625 -11.953125 C 6.765625 -11.953125 5.953125 -11.804688 5.203125 -11.515625 C 4.460938 -11.234375 3.6875 -10.820312 2.875 -10.28125 L 1.265625 -13.734375 C 3.285156 -15.035156 5.597656 -15.6875 8.203125 -15.6875 C 10.660156 -15.6875 12.550781 -15.140625 13.875 -14.046875 C 15.207031 -12.960938 15.875 -11.328125 15.875 -9.140625 L 15.875 -6.15625 C 15.875 -5.625 15.96875 -5.253906 16.15625 -5.046875 C 16.351562 -4.847656 16.707031 -4.726562 17.21875 -4.6875 L 17.21875 0 C 16.707031 0.09375 16.226562 0.164062 15.78125 0.21875 C 15.332031 0.269531 14.929688 0.296875 14.578125 0.296875 C 13.585938 0.296875 12.832031 0.113281 12.3125 -0.25 C 11.789062 -0.613281 11.453125 -1.144531 11.296875 -1.84375 L 11.1875 -2.40625 C 10.5 -1.519531 9.707031 -0.847656 8.8125 -0.390625 C 7.914062 0.0664062 6.957031 0.296875 5.9375 0.296875 Z M 7.609375 -3.6875 C 7.941406 -3.6875 8.285156 -3.738281 8.640625 -3.84375 C 8.992188 -3.957031 9.304688 -4.101562 9.578125 -4.28125 C 9.785156 -4.4375 9.957031 -4.601562 10.09375 -4.78125 C 10.238281 -4.96875 10.3125 -5.160156 10.3125 -5.359375 L 10.3125 -6.5 C 9.976562 -6.613281 9.613281 -6.707031 9.21875 -6.78125 C 8.832031 -6.863281 8.484375 -6.90625 8.171875 -6.90625 C 7.484375 -6.90625 6.914062 -6.738281 6.46875 -6.40625 C 6.019531 -6.082031 5.796875 -5.664062 5.796875 -5.15625 C 5.796875 -4.726562 5.96875 -4.375 6.3125 -4.09375 C 6.65625 -3.820312 7.085938 -3.6875 7.609375 -3.6875 Z M 7.609375 -3.6875 "/></g></g></g><g fill="#ffffff" fill-opacity="1"><g transform="translate(175.352021, 36.940039)"><g><path d="M 7.84375 0.296875 C 6.789062 0.296875 5.820312 0.101562 4.9375 -0.28125 C 4.050781 -0.675781 3.285156 -1.226562 2.640625 -1.9375 C 1.992188 -2.65625 1.488281 -3.503906 1.125 -4.484375 C 0.757812 -5.472656 0.578125 -6.554688 0.578125 -7.734375 C 0.578125 -8.859375 0.742188 -9.910156 1.078125 -10.890625 C 1.410156 -11.867188 1.875 -12.710938 2.46875 -13.421875 C 3.070312 -14.140625 3.78125 -14.695312 4.59375 -15.09375 C 5.414062 -15.488281 6.320312 -15.6875 7.3125 -15.6875 C 8.3125 -15.6875 9.222656 -15.460938 10.046875 -15.015625 C 10.878906 -14.566406 11.519531 -13.9375 11.96875 -13.125 L 11.96875 -21.375 L 17.546875 -21.375 L 17.546875 -6.15625 C 17.546875 -5.625 17.640625 -5.253906 17.828125 -5.046875 C 18.023438 -4.847656 18.378906 -4.726562 18.890625 -4.6875 L 18.890625 0 C 18.316406 0.09375 17.816406 0.164062 17.390625 0.21875 C 16.960938 0.269531 16.582031 0.296875 16.25 0.296875 C 14.351562 0.296875 13.257812 -0.414062 12.96875 -1.84375 L 12.859375 -2.40625 C 12.328125 -1.46875 11.613281 -0.78125 10.71875 -0.34375 C 9.820312 0.0820312 8.863281 0.296875 7.84375 0.296875 Z M 9.375 -4.390625 C 10.382812 -4.390625 11.257812 -4.914062 12 -5.96875 L 12 -8.71875 C 11.726562 -9.40625 11.328125 -9.957031 10.796875 -10.375 C 10.273438 -10.800781 9.722656 -11.015625 9.140625 -11.015625 C 8.722656 -11.015625 8.34375 -10.925781 8 -10.75 C 7.664062 -10.570312 7.375 -10.328125 7.125 -10.015625 C 6.882812 -9.703125 6.691406 -9.335938 6.546875 -8.921875 C 6.398438 -8.515625 6.328125 -8.078125 6.328125 -7.609375 C 6.328125 -6.640625 6.601562 -5.859375 7.15625 -5.265625 C 7.71875 -4.679688 8.457031 -4.390625 9.375 -4.390625 Z M 9.375 -4.390625 "/></g></g></g><g fill="#ffffff" fill-opacity="1"><g transform="translate(195.025147, 36.940039)"><g><path d="M 1.40625 0 L 1.40625 -15.40625 L 6.96875 -15.40625 L 6.96875 0 Z M 1.40625 -16.6875 L 1.40625 -21.375 L 6.96875 -21.375 L 6.96875 -16.6875 Z M 1.40625 -16.6875 "/></g></g></g><g fill="#ffffff" fill-opacity="1"><g transform="translate(203.397935, 36.940039)"><g><path d="M 8.984375 0.296875 C 7.597656 0.296875 6.382812 0.078125 5.34375 -0.359375 C 4.300781 -0.804688 3.421875 -1.394531 2.703125 -2.125 C 1.992188 -2.851562 1.457031 -3.703125 1.09375 -4.671875 C 0.738281 -5.640625 0.5625 -6.648438 0.5625 -7.703125 C 0.5625 -8.753906 0.738281 -9.765625 1.09375 -10.734375 C 1.457031 -11.703125 1.992188 -12.550781 2.703125 -13.28125 C 3.421875 -14.007812 4.300781 -14.59375 5.34375 -15.03125 C 6.382812 -15.46875 7.597656 -15.6875 8.984375 -15.6875 C 10.347656 -15.6875 11.554688 -15.46875 12.609375 -15.03125 C 13.671875 -14.59375 14.554688 -14.007812 15.265625 -13.28125 C 15.984375 -12.550781 16.519531 -11.703125 16.875 -10.734375 C 17.238281 -9.765625 17.421875 -8.753906 17.421875 -7.703125 C 17.421875 -6.648438 17.238281 -5.640625 16.875 -4.671875 C 16.519531 -3.703125 15.984375 -2.851562 15.265625 -2.125 C 14.554688 -1.394531 13.671875 -0.804688 12.609375 -0.359375 C 11.554688 0.078125 10.347656 0.296875 8.984375 0.296875 Z M 6.265625 -7.703125 C 6.265625 -6.671875 6.515625 -5.859375 7.015625 -5.265625 C 7.523438 -4.679688 8.179688 -4.390625 8.984375 -4.390625 C 9.785156 -4.390625 10.441406 -4.679688 10.953125 -5.265625 C 11.460938 -5.859375 11.71875 -6.671875 11.71875 -7.703125 C 11.71875 -8.734375 11.460938 -9.539062 10.953125 -10.125 C 10.441406 -10.71875 9.785156 -11.015625 8.984375 -11.015625 C 8.179688 -11.015625 7.523438 -10.71875 7.015625 -10.125 C 6.515625 -9.539062 6.265625 -8.734375 6.265625 -7.703125 Z M 6.265625 -7.703125 "/></g></g></g><g fill="#ffffff" fill-opacity="1"><g transform="translate(221.373088, 36.940039)"><g><path d="M 1.46875 0 L 1.46875 -5.390625 L 5.96875 -5.390625 L 5.96875 0 Z M 1.46875 0 "/></g></g></g><g fill="#ffffff" fill-opacity="1"><g transform="translate(228.80906, 36.940039)"><g><path d="M 26.234375 0 L 20.671875 0 L 20.671875 -8.671875 C 20.671875 -9.429688 20.519531 -9.976562 20.21875 -10.3125 C 19.914062 -10.65625 19.550781 -10.828125 19.125 -10.828125 C 18.675781 -10.828125 18.203125 -10.625 17.703125 -10.21875 C 17.203125 -9.8125 16.835938 -9.285156 16.609375 -8.640625 L 16.609375 0 L 11.03125 0 L 11.03125 -8.671875 C 11.03125 -9.429688 10.878906 -9.976562 10.578125 -10.3125 C 10.273438 -10.65625 9.910156 -10.828125 9.484375 -10.828125 C 9.035156 -10.828125 8.5625 -10.625 8.0625 -10.21875 C 7.5625 -9.8125 7.195312 -9.285156 6.96875 -8.640625 L 6.96875 0 L 1.40625 0 L 1.40625 -15.40625 L 6.40625 -15.40625 L 6.40625 -13.125 C 6.957031 -13.957031 7.710938 -14.59375 8.671875 -15.03125 C 9.628906 -15.46875 10.757812 -15.6875 12.0625 -15.6875 C 12.6875 -15.6875 13.234375 -15.613281 13.703125 -15.46875 C 14.171875 -15.320312 14.578125 -15.125 14.921875 -14.875 C 15.265625 -14.625 15.535156 -14.34375 15.734375 -14.03125 C 15.941406 -13.71875 16.101562 -13.382812 16.21875 -13.03125 C 16.769531 -13.875 17.515625 -14.523438 18.453125 -14.984375 C 19.398438 -15.453125 20.484375 -15.6875 21.703125 -15.6875 C 22.710938 -15.6875 23.515625 -15.492188 24.109375 -15.109375 C 24.703125 -14.734375 25.15625 -14.265625 25.46875 -13.703125 C 25.78125 -13.140625 25.984375 -12.535156 26.078125 -11.890625 C 26.179688 -11.242188 26.234375 -10.65625 26.234375 -10.125 Z M 26.234375 0 "/></g></g></g><g fill="#ffffff" fill-opacity="1"><g transform="translate(256.328015, 36.940039)"><g><path d="M 1.3125 -21.375 L 6.875 -21.375 L 6.875 -6.5 C 6.875 -5.332031 7.351562 -4.75 8.3125 -4.75 C 8.550781 -4.75 8.804688 -4.785156 9.078125 -4.859375 C 9.347656 -4.941406 9.601562 -5.050781 9.84375 -5.1875 L 10.546875 -0.703125 C 9.878906 -0.390625 9.128906 -0.144531 8.296875 0.03125 C 7.472656 0.207031 6.6875 0.296875 5.9375 0.296875 C 4.457031 0.296875 3.316406 -0.0820312 2.515625 -0.84375 C 1.710938 -1.601562 1.3125 -2.707031 1.3125 -4.15625 Z M 1.3125 -21.375 "/></g></g></g><g fill="#ffffff" fill-opacity="1"><g transform="translate(266.955018, 36.940039)"><g><path d="M 7.3125 0 C 6.320312 0 5.410156 -0.195312 4.578125 -0.59375 C 3.753906 -1 3.046875 -1.546875 2.453125 -2.234375 C 1.867188 -2.929688 1.414062 -3.75 1.09375 -4.6875 C 0.769531 -5.625 0.609375 -6.640625 0.609375 -7.734375 C 0.609375 -8.878906 0.785156 -9.941406 1.140625 -10.921875 C 1.492188 -11.898438 1.988281 -12.738281 2.625 -13.4375 C 3.257812 -14.144531 4.015625 -14.695312 4.890625 -15.09375 C 5.765625 -15.488281 6.726562 -15.6875 7.78125 -15.6875 C 8.894531 -15.6875 9.867188 -15.46875 10.703125 -15.03125 C 11.546875 -14.59375 12.210938 -13.957031 12.703125 -13.125 L 12.703125 -15.40625 L 17.546875 -15.40625 L 17.546875 -1.40625 C 17.546875 -0.195312 17.316406 0.894531 16.859375 1.875 C 16.410156 2.851562 15.773438 3.679688 14.953125 4.359375 C 14.140625 5.046875 13.15625 5.578125 12 5.953125 C 10.851562 6.335938 9.578125 6.53125 8.171875 6.53125 C 6.523438 6.53125 5.097656 6.273438 3.890625 5.765625 C 2.679688 5.253906 1.609375 4.523438 0.671875 3.578125 L 3.609375 0.53125 C 4.171875 1.050781 4.847656 1.492188 5.640625 1.859375 C 6.429688 2.222656 7.273438 2.40625 8.171875 2.40625 C 8.679688 2.40625 9.164062 2.332031 9.625 2.1875 C 10.082031 2.050781 10.484375 1.832031 10.828125 1.53125 C 11.179688 1.226562 11.457031 0.832031 11.65625 0.34375 C 11.863281 -0.132812 11.96875 -0.71875 11.96875 -1.40625 L 11.96875 -2.40625 C 11.519531 -1.582031 10.878906 -0.972656 10.046875 -0.578125 C 9.222656 -0.191406 8.3125 0 7.3125 0 Z M 9.3125 -4.390625 C 9.875 -4.390625 10.363281 -4.519531 10.78125 -4.78125 C 11.207031 -5.050781 11.601562 -5.445312 11.96875 -5.96875 L 11.96875 -8.71875 C 11.695312 -9.425781 11.289062 -9.984375 10.75 -10.390625 C 10.21875 -10.804688 9.660156 -11.015625 9.078125 -11.015625 C 8.679688 -11.015625 8.3125 -10.921875 7.96875 -10.734375 C 7.632812 -10.546875 7.335938 -10.300781 7.078125 -10 C 6.828125 -9.695312 6.632812 -9.332031 6.5 -8.90625 C 6.363281 -8.488281 6.296875 -8.046875 6.296875 -7.578125 C 6.296875 -6.628906 6.578125 -5.859375 7.140625 -5.265625 C 7.710938 -4.679688 8.4375 -4.390625 9.3125 -4.390625 Z M 9.3125 -4.390625 "/></g></g></g></svg>