<svg xmlns="http://www.w3.org/2000/svg" xmlns:xlink="http://www.w3.org/1999/xlink" width="400" zoomAndPan="magnify" viewBox="0 0 300 60" height="80" preserveAspectRatio="xMidYMid meet" version="1.0"><defs><g/><clipPath id="d60809ef45"><path d="M 0 2.753906 L 54.75 2.753906 L 54.75 57.5 L 0 57.5 Z M 0 2.753906 " clip-rule="nonzero"/></clipPath></defs><g clip-path="url(#d60809ef45)"><path fill="#44ad44" d="M 54.746094 30.128906 C 54.746094 45.246094 42.492188 57.5 27.375 57.5 C 12.253906 57.5 0 45.246094 0 30.128906 C 0 15.007812 12.253906 2.753906 27.375 2.753906 C 42.492188 2.753906 54.746094 15.007812 54.746094 30.128906 " fill-opacity="1" fill-rule="nonzero"/></g><path fill="#ffffff" d="M 38.855469 36.460938 C 36.089844 35.296875 33.472656 34.898438 31.882812 37.300781 C 27.171875 34.320312 23.179688 30.328125 20.203125 25.617188 C 22.605469 24.027344 22.203125 21.414062 21.042969 18.648438 C 19.859375 15.890625 18.238281 13.695312 15.425781 14.308594 C 12.613281 14.871094 10.398438 18.761719 11.976562 22.488281 C 16.371094 32.859375 24.644531 41.128906 35.011719 45.523438 C 38.738281 47.105469 42.628906 44.886719 43.195312 42.078125 C 43.804688 39.261719 41.609375 37.640625 38.855469 36.460938 " fill-opacity="1" fill-rule="nonzero"/><path fill="#ffffff" d="M 38.855469 36.460938 C 36.089844 35.296875 33.472656 34.898438 31.882812 37.300781 C 27.171875 34.320312 23.179688 30.328125 20.203125 25.617188 C 22.605469 24.027344 22.203125 21.414062 21.042969 18.648438 C 19.859375 15.890625 18.238281 13.695312 15.425781 14.308594 C 12.613281 14.871094 10.398438 18.761719 11.976562 22.488281 C 16.371094 32.859375 24.644531 41.128906 35.011719 45.523438 C 38.738281 47.105469 42.628906 44.886719 43.195312 42.078125 C 43.804688 39.261719 41.609375 37.640625 38.855469 36.460938 " fill-opacity="1" fill-rule="nonzero"/><g fill="#ffffff" fill-opacity="1"><g transform="translate(62.805254, 39.519642)"><g><path d="M 10.453125 -11.703125 L 10.453125 -7.625 L 8.140625 -7.625 L 8.140625 -5.03125 L 3.515625 -5.03125 L 3.515625 -7.625 L 1.203125 -7.625 L 1.203125 -11.703125 L 3.515625 -11.703125 L 3.515625 -14.296875 L 8.140625 -14.296875 L 8.140625 -11.703125 Z M 10.453125 -11.703125 "/></g></g></g><g fill="#ffffff" fill-opacity="1"><g transform="translate(74.458433, 39.519642)"><g><path d="M 8.0625 -8.875 C 9.007812 -8.875 9.867188 -8.71875 10.640625 -8.40625 C 11.421875 -8.101562 12.097656 -7.675781 12.671875 -7.125 C 13.242188 -6.570312 13.6875 -5.90625 14 -5.125 C 14.320312 -4.351562 14.484375 -3.507812 14.484375 -2.59375 C 14.484375 -1.601562 14.300781 -0.703125 13.9375 0.109375 C 13.582031 0.921875 13.070312 1.617188 12.40625 2.203125 C 11.738281 2.785156 10.945312 3.238281 10.03125 3.5625 C 9.113281 3.894531 8.101562 4.0625 7 4.0625 C 5.582031 4.0625 4.304688 3.796875 3.171875 3.265625 C 2.035156 2.742188 1.160156 1.988281 0.546875 1 L 3.375 -2.265625 C 3.90625 -1.703125 4.488281 -1.257812 5.125 -0.9375 C 5.769531 -0.625 6.40625 -0.46875 7.03125 -0.46875 C 7.695312 -0.46875 8.21875 -0.644531 8.59375 -1 C 8.976562 -1.363281 9.171875 -1.859375 9.171875 -2.484375 C 9.171875 -3.078125 9 -3.554688 8.65625 -3.921875 C 8.3125 -4.285156 7.859375 -4.46875 7.296875 -4.46875 C 6.921875 -4.46875 6.570312 -4.378906 6.25 -4.203125 C 5.9375 -4.035156 5.695312 -3.804688 5.53125 -3.515625 L 1.09375 -3.515625 L 3.375 -15.546875 L 13.078125 -15.546875 L 13.078125 -10.84375 L 7.109375 -10.84375 L 6.8125 -8.75 C 6.882812 -8.757812 6.984375 -8.773438 7.109375 -8.796875 C 7.203125 -8.816406 7.328125 -8.832031 7.484375 -8.84375 C 7.648438 -8.863281 7.84375 -8.875 8.0625 -8.875 Z M 8.0625 -8.875 "/></g></g></g><g fill="#ffffff" fill-opacity="1"><g transform="translate(89.65113, 39.519642)"><g><path d="M 7.546875 3.453125 L 7.546875 0.078125 L 0.546875 0.078125 L 0.546875 -4.546875 L 9.171875 -15.546875 L 12.71875 -15.546875 L 12.71875 -4.546875 L 15.109375 -4.546875 L 15.109375 0.078125 L 12.71875 0.078125 L 12.71875 3.453125 Z M 5.640625 -4.546875 L 8.140625 -4.546875 L 8.140625 -7.8125 Z M 5.640625 -4.546875 "/></g></g></g><g fill="#ffffff" fill-opacity="1"><g transform="translate(105.551737, 39.519642)"><g/></g></g><g fill="#ffffff" fill-opacity="1"><g transform="translate(111.67782, 39.519642)"><g><path d="M 0.734375 -8.75 C 0.734375 -9.6875 0.914062 -10.570312 1.28125 -11.40625 C 1.644531 -12.238281 2.148438 -12.957031 2.796875 -13.5625 C 3.453125 -14.175781 4.21875 -14.660156 5.09375 -15.015625 C 5.976562 -15.367188 6.941406 -15.546875 7.984375 -15.546875 C 9.140625 -15.546875 10.164062 -15.332031 11.0625 -14.90625 C 11.96875 -14.476562 12.726562 -13.851562 13.34375 -13.03125 C 13.957031 -12.21875 14.425781 -11.222656 14.75 -10.046875 C 15.082031 -8.867188 15.25 -7.523438 15.25 -6.015625 C 15.25 -4.421875 15.070312 -2.992188 14.71875 -1.734375 C 14.363281 -0.472656 13.847656 0.597656 13.171875 1.484375 C 12.503906 2.367188 11.6875 3.046875 10.71875 3.515625 C 9.757812 3.984375 8.675781 4.21875 7.46875 4.21875 C 5.101562 4.21875 3.050781 3.347656 1.3125 1.609375 L 4.171875 -1.71875 C 5.148438 -0.738281 6.273438 -0.25 7.546875 -0.25 C 8.429688 -0.25 9.132812 -0.515625 9.65625 -1.046875 C 10.175781 -1.585938 10.453125 -2.347656 10.484375 -3.328125 C 9.796875 -2.703125 8.816406 -2.390625 7.546875 -2.390625 C 6.566406 -2.390625 5.660156 -2.546875 4.828125 -2.859375 C 4.003906 -3.179688 3.285156 -3.628906 2.671875 -4.203125 C 2.066406 -4.773438 1.59375 -5.445312 1.25 -6.21875 C 0.90625 -6.988281 0.734375 -7.832031 0.734375 -8.75 Z M 7.984375 -11.21875 C 7.671875 -11.21875 7.375 -11.148438 7.09375 -11.015625 C 6.8125 -10.878906 6.566406 -10.695312 6.359375 -10.46875 C 6.148438 -10.238281 5.984375 -9.972656 5.859375 -9.671875 C 5.734375 -9.378906 5.671875 -9.070312 5.671875 -8.75 C 5.671875 -8.101562 5.894531 -7.554688 6.34375 -7.109375 C 6.800781 -6.671875 7.347656 -6.453125 7.984375 -6.453125 C 8.617188 -6.453125 9.160156 -6.671875 9.609375 -7.109375 C 10.066406 -7.554688 10.296875 -8.101562 10.296875 -8.75 C 10.296875 -9.070312 10.226562 -9.378906 10.09375 -9.671875 C 9.96875 -9.972656 9.800781 -10.238281 9.59375 -10.46875 C 9.382812 -10.695312 9.140625 -10.878906 8.859375 -11.015625 C 8.578125 -11.148438 8.285156 -11.21875 7.984375 -11.21875 Z M 7.984375 -11.21875 "/></g></g></g><g fill="#ffffff" fill-opacity="1"><g transform="translate(127.741783, 39.519642)"><g/></g></g><g fill="#ffffff" fill-opacity="1"><g transform="translate(133.867867, 39.519642)"><g><path d="M 0.875 0 C 0.875 -0.90625 0.945312 -1.703125 1.09375 -2.390625 C 1.238281 -3.085938 1.472656 -3.710938 1.796875 -4.265625 C 2.117188 -4.816406 2.539062 -5.3125 3.0625 -5.75 C 3.582031 -6.1875 4.222656 -6.613281 4.984375 -7.03125 C 5.960938 -7.550781 6.738281 -7.96875 7.3125 -8.28125 C 7.882812 -8.601562 8.316406 -8.863281 8.609375 -9.0625 C 8.898438 -9.269531 9.082031 -9.441406 9.15625 -9.578125 C 9.238281 -9.710938 9.28125 -9.859375 9.28125 -10.015625 C 9.28125 -10.472656 9.132812 -10.8125 8.84375 -11.03125 C 8.5625 -11.25 8.164062 -11.359375 7.65625 -11.359375 C 7.050781 -11.359375 6.476562 -11.203125 5.9375 -10.890625 C 5.40625 -10.585938 4.851562 -10.085938 4.28125 -9.390625 L 1 -13.234375 C 1.351562 -13.617188 1.800781 -13.96875 2.34375 -14.28125 C 2.882812 -14.601562 3.484375 -14.875 4.140625 -15.09375 C 4.804688 -15.320312 5.507812 -15.5 6.25 -15.625 C 7 -15.757812 7.765625 -15.828125 8.546875 -15.828125 C 10.640625 -15.828125 12.222656 -15.394531 13.296875 -14.53125 C 14.378906 -13.664062 14.921875 -12.460938 14.921875 -10.921875 C 14.921875 -10.359375 14.847656 -9.859375 14.703125 -9.421875 C 14.554688 -8.984375 14.359375 -8.585938 14.109375 -8.234375 C 13.867188 -7.878906 13.578125 -7.554688 13.234375 -7.265625 C 12.890625 -6.972656 12.523438 -6.703125 12.140625 -6.453125 C 11.691406 -6.140625 11.21875 -5.84375 10.71875 -5.5625 C 10.21875 -5.28125 9.722656 -4.96875 9.234375 -4.625 L 15.21875 -4.625 L 15.21875 0 Z M 0.875 0 "/></g></g></g><g fill="#ffffff" fill-opacity="1"><g transform="translate(150.204107, 39.519642)"><g><path d="M 15.578125 -6.53125 C 15.578125 -5.570312 15.394531 -4.675781 15.03125 -3.84375 C 14.664062 -3.019531 14.15625 -2.304688 13.5 -1.703125 C 12.851562 -1.097656 12.085938 -0.617188 11.203125 -0.265625 C 10.328125 0.0859375 9.367188 0.265625 8.328125 0.265625 C 6.003906 0.265625 4.210938 -0.566406 2.953125 -2.234375 C 1.691406 -3.898438 1.0625 -6.242188 1.0625 -9.265625 C 1.0625 -10.859375 1.238281 -12.285156 1.59375 -13.546875 C 1.945312 -14.804688 2.457031 -15.875 3.125 -16.75 C 3.800781 -17.632812 4.617188 -18.3125 5.578125 -18.78125 C 6.546875 -19.257812 7.632812 -19.5 8.84375 -19.5 C 11.207031 -19.5 13.257812 -18.628906 15 -16.890625 L 12.140625 -13.5625 C 11.160156 -14.539062 10.035156 -15.03125 8.765625 -15.03125 C 7.878906 -15.03125 7.175781 -14.757812 6.65625 -14.21875 C 6.132812 -13.6875 5.859375 -12.929688 5.828125 -11.953125 C 6.515625 -12.566406 7.492188 -12.875 8.765625 -12.875 C 9.742188 -12.875 10.644531 -12.710938 11.46875 -12.390625 C 12.300781 -12.078125 13.019531 -11.632812 13.625 -11.0625 C 14.238281 -10.5 14.71875 -9.828125 15.0625 -9.046875 C 15.40625 -8.273438 15.578125 -7.4375 15.578125 -6.53125 Z M 8.328125 -4.0625 C 8.640625 -4.0625 8.9375 -4.128906 9.21875 -4.265625 C 9.5 -4.398438 9.742188 -4.578125 9.953125 -4.796875 C 10.160156 -5.023438 10.328125 -5.289062 10.453125 -5.59375 C 10.585938 -5.894531 10.65625 -6.207031 10.65625 -6.53125 C 10.65625 -7.164062 10.425781 -7.707031 9.96875 -8.15625 C 9.507812 -8.601562 8.960938 -8.828125 8.328125 -8.828125 C 7.691406 -8.828125 7.144531 -8.601562 6.6875 -8.15625 C 6.238281 -7.707031 6.015625 -7.164062 6.015625 -6.53125 C 6.015625 -6.207031 6.078125 -5.894531 6.203125 -5.59375 C 6.335938 -5.289062 6.507812 -5.023438 6.71875 -4.796875 C 6.925781 -4.578125 7.171875 -4.398438 7.453125 -4.265625 C 7.734375 -4.128906 8.023438 -4.0625 8.328125 -4.0625 Z M 8.328125 -4.0625 "/></g></g></g><g fill="#ffffff" fill-opacity="1"><g transform="translate(166.758158, 39.519642)"><g><path d="M 14.25 -4.625 L 14.25 0 L 1.640625 0 L 1.640625 -4.625 L 5.5 -4.625 L 5.5 -10.046875 C 5.332031 -9.828125 5.078125 -9.613281 4.734375 -9.40625 C 4.390625 -9.195312 4.003906 -9 3.578125 -8.8125 C 3.148438 -8.632812 2.71875 -8.488281 2.28125 -8.375 C 1.851562 -8.269531 1.460938 -8.21875 1.109375 -8.21875 L 1.109375 -12.96875 C 1.367188 -12.96875 1.722656 -13.0625 2.171875 -13.25 C 2.628906 -13.4375 3.082031 -13.660156 3.53125 -13.921875 C 3.988281 -14.191406 4.40625 -14.472656 4.78125 -14.765625 C 5.15625 -15.066406 5.394531 -15.328125 5.5 -15.546875 L 10.78125 -15.546875 L 10.78125 -4.625 Z M 14.25 -4.625 "/></g></g></g><g fill="#ffffff" fill-opacity="1"><g transform="translate(181.651356, 39.519642)"><g/></g></g><g fill="#ffffff" fill-opacity="1"><g transform="translate(187.777439, 39.519642)"><g><path d="M 15.578125 -6.53125 C 15.578125 -5.570312 15.394531 -4.675781 15.03125 -3.84375 C 14.664062 -3.019531 14.15625 -2.304688 13.5 -1.703125 C 12.851562 -1.097656 12.085938 -0.617188 11.203125 -0.265625 C 10.328125 0.0859375 9.367188 0.265625 8.328125 0.265625 C 6.003906 0.265625 4.210938 -0.566406 2.953125 -2.234375 C 1.691406 -3.898438 1.0625 -6.242188 1.0625 -9.265625 C 1.0625 -10.859375 1.238281 -12.285156 1.59375 -13.546875 C 1.945312 -14.804688 2.457031 -15.875 3.125 -16.75 C 3.800781 -17.632812 4.617188 -18.3125 5.578125 -18.78125 C 6.546875 -19.257812 7.632812 -19.5 8.84375 -19.5 C 11.207031 -19.5 13.257812 -18.628906 15 -16.890625 L 12.140625 -13.5625 C 11.160156 -14.539062 10.035156 -15.03125 8.765625 -15.03125 C 7.878906 -15.03125 7.175781 -14.757812 6.65625 -14.21875 C 6.132812 -13.6875 5.859375 -12.929688 5.828125 -11.953125 C 6.515625 -12.566406 7.492188 -12.875 8.765625 -12.875 C 9.742188 -12.875 10.644531 -12.710938 11.46875 -12.390625 C 12.300781 -12.078125 13.019531 -11.632812 13.625 -11.0625 C 14.238281 -10.5 14.71875 -9.828125 15.0625 -9.046875 C 15.40625 -8.273438 15.578125 -7.4375 15.578125 -6.53125 Z M 8.328125 -4.0625 C 8.640625 -4.0625 8.9375 -4.128906 9.21875 -4.265625 C 9.5 -4.398438 9.742188 -4.578125 9.953125 -4.796875 C 10.160156 -5.023438 10.328125 -5.289062 10.453125 -5.59375 C 10.585938 -5.894531 10.65625 -6.207031 10.65625 -6.53125 C 10.65625 -7.164062 10.425781 -7.707031 9.96875 -8.15625 C 9.507812 -8.601562 8.960938 -8.828125 8.328125 -8.828125 C 7.691406 -8.828125 7.144531 -8.601562 6.6875 -8.15625 C 6.238281 -7.707031 6.015625 -7.164062 6.015625 -6.53125 C 6.015625 -6.207031 6.078125 -5.894531 6.203125 -5.59375 C 6.335938 -5.289062 6.507812 -5.023438 6.71875 -4.796875 C 6.925781 -4.578125 7.171875 -4.398438 7.453125 -4.265625 C 7.734375 -4.128906 8.023438 -4.0625 8.328125 -4.0625 Z M 8.328125 -4.0625 "/></g></g></g><g fill="#ffffff" fill-opacity="1"><g transform="translate(204.33149, 39.519642)"><g><path d="M 15.578125 -6.53125 C 15.578125 -5.570312 15.394531 -4.675781 15.03125 -3.84375 C 14.664062 -3.019531 14.15625 -2.304688 13.5 -1.703125 C 12.851562 -1.097656 12.085938 -0.617188 11.203125 -0.265625 C 10.328125 0.0859375 9.367188 0.265625 8.328125 0.265625 C 6.003906 0.265625 4.210938 -0.566406 2.953125 -2.234375 C 1.691406 -3.898438 1.0625 -6.242188 1.0625 -9.265625 C 1.0625 -10.859375 1.238281 -12.285156 1.59375 -13.546875 C 1.945312 -14.804688 2.457031 -15.875 3.125 -16.75 C 3.800781 -17.632812 4.617188 -18.3125 5.578125 -18.78125 C 6.546875 -19.257812 7.632812 -19.5 8.84375 -19.5 C 11.207031 -19.5 13.257812 -18.628906 15 -16.890625 L 12.140625 -13.5625 C 11.160156 -14.539062 10.035156 -15.03125 8.765625 -15.03125 C 7.878906 -15.03125 7.175781 -14.757812 6.65625 -14.21875 C 6.132812 -13.6875 5.859375 -12.929688 5.828125 -11.953125 C 6.515625 -12.566406 7.492188 -12.875 8.765625 -12.875 C 9.742188 -12.875 10.644531 -12.710938 11.46875 -12.390625 C 12.300781 -12.078125 13.019531 -11.632812 13.625 -11.0625 C 14.238281 -10.5 14.71875 -9.828125 15.0625 -9.046875 C 15.40625 -8.273438 15.578125 -7.4375 15.578125 -6.53125 Z M 8.328125 -4.0625 C 8.640625 -4.0625 8.9375 -4.128906 9.21875 -4.265625 C 9.5 -4.398438 9.742188 -4.578125 9.953125 -4.796875 C 10.160156 -5.023438 10.328125 -5.289062 10.453125 -5.59375 C 10.585938 -5.894531 10.65625 -6.207031 10.65625 -6.53125 C 10.65625 -7.164062 10.425781 -7.707031 9.96875 -8.15625 C 9.507812 -8.601562 8.960938 -8.828125 8.328125 -8.828125 C 7.691406 -8.828125 7.144531 -8.601562 6.6875 -8.15625 C 6.238281 -7.707031 6.015625 -7.164062 6.015625 -6.53125 C 6.015625 -6.207031 6.078125 -5.894531 6.203125 -5.59375 C 6.335938 -5.289062 6.507812 -5.023438 6.71875 -4.796875 C 6.925781 -4.578125 7.171875 -4.398438 7.453125 -4.265625 C 7.734375 -4.128906 8.023438 -4.0625 8.328125 -4.0625 Z M 8.328125 -4.0625 "/></g></g></g><g fill="#ffffff" fill-opacity="1"><g transform="translate(220.885542, 39.519642)"><g><path d="M 7.546875 3.453125 L 7.546875 0.078125 L 0.546875 0.078125 L 0.546875 -4.546875 L 9.171875 -15.546875 L 12.71875 -15.546875 L 12.71875 -4.546875 L 15.109375 -4.546875 L 15.109375 0.078125 L 12.71875 0.078125 L 12.71875 3.453125 Z M 5.640625 -4.546875 L 8.140625 -4.546875 L 8.140625 -7.8125 Z M 5.640625 -4.546875 "/></g></g></g><g fill="#ffffff" fill-opacity="1"><g transform="translate(236.786149, 39.519642)"><g><path d="M 0.734375 -8.75 C 0.734375 -9.6875 0.914062 -10.570312 1.28125 -11.40625 C 1.644531 -12.238281 2.148438 -12.957031 2.796875 -13.5625 C 3.453125 -14.175781 4.21875 -14.660156 5.09375 -15.015625 C 5.976562 -15.367188 6.941406 -15.546875 7.984375 -15.546875 C 9.140625 -15.546875 10.164062 -15.332031 11.0625 -14.90625 C 11.96875 -14.476562 12.726562 -13.851562 13.34375 -13.03125 C 13.957031 -12.21875 14.425781 -11.222656 14.75 -10.046875 C 15.082031 -8.867188 15.25 -7.523438 15.25 -6.015625 C 15.25 -4.421875 15.070312 -2.992188 14.71875 -1.734375 C 14.363281 -0.472656 13.847656 0.597656 13.171875 1.484375 C 12.503906 2.367188 11.6875 3.046875 10.71875 3.515625 C 9.757812 3.984375 8.675781 4.21875 7.46875 4.21875 C 5.101562 4.21875 3.050781 3.347656 1.3125 1.609375 L 4.171875 -1.71875 C 5.148438 -0.738281 6.273438 -0.25 7.546875 -0.25 C 8.429688 -0.25 9.132812 -0.515625 9.65625 -1.046875 C 10.175781 -1.585938 10.453125 -2.347656 10.484375 -3.328125 C 9.796875 -2.703125 8.816406 -2.390625 7.546875 -2.390625 C 6.566406 -2.390625 5.660156 -2.546875 4.828125 -2.859375 C 4.003906 -3.179688 3.285156 -3.628906 2.671875 -4.203125 C 2.066406 -4.773438 1.59375 -5.445312 1.25 -6.21875 C 0.90625 -6.988281 0.734375 -7.832031 0.734375 -8.75 Z M 7.984375 -11.21875 C 7.671875 -11.21875 7.375 -11.148438 7.09375 -11.015625 C 6.8125 -10.878906 6.566406 -10.695312 6.359375 -10.46875 C 6.148438 -10.238281 5.984375 -9.972656 5.859375 -9.671875 C 5.734375 -9.378906 5.671875 -9.070312 5.671875 -8.75 C 5.671875 -8.101562 5.894531 -7.554688 6.34375 -7.109375 C 6.800781 -6.671875 7.347656 -6.453125 7.984375 -6.453125 C 8.617188 -6.453125 9.160156 -6.671875 9.609375 -7.109375 C 10.066406 -7.554688 10.296875 -8.101562 10.296875 -8.75 C 10.296875 -9.070312 10.226562 -9.378906 10.09375 -9.671875 C 9.96875 -9.972656 9.800781 -10.238281 9.59375 -10.46875 C 9.382812 -10.695312 9.140625 -10.878906 8.859375 -11.015625 C 8.578125 -11.148438 8.285156 -11.21875 7.984375 -11.21875 Z M 7.984375 -11.21875 "/></g></g></g><g fill="#ffffff" fill-opacity="1"><g transform="translate(252.850101, 39.519642)"><g><path d="M 0.734375 -8.75 C 0.734375 -9.6875 0.914062 -10.570312 1.28125 -11.40625 C 1.644531 -12.238281 2.148438 -12.957031 2.796875 -13.5625 C 3.453125 -14.175781 4.21875 -14.660156 5.09375 -15.015625 C 5.976562 -15.367188 6.941406 -15.546875 7.984375 -15.546875 C 9.140625 -15.546875 10.164062 -15.332031 11.0625 -14.90625 C 11.96875 -14.476562 12.726562 -13.851562 13.34375 -13.03125 C 13.957031 -12.21875 14.425781 -11.222656 14.75 -10.046875 C 15.082031 -8.867188 15.25 -7.523438 15.25 -6.015625 C 15.25 -4.421875 15.070312 -2.992188 14.71875 -1.734375 C 14.363281 -0.472656 13.847656 0.597656 13.171875 1.484375 C 12.503906 2.367188 11.6875 3.046875 10.71875 3.515625 C 9.757812 3.984375 8.675781 4.21875 7.46875 4.21875 C 5.101562 4.21875 3.050781 3.347656 1.3125 1.609375 L 4.171875 -1.71875 C 5.148438 -0.738281 6.273438 -0.25 7.546875 -0.25 C 8.429688 -0.25 9.132812 -0.515625 9.65625 -1.046875 C 10.175781 -1.585938 10.453125 -2.347656 10.484375 -3.328125 C 9.796875 -2.703125 8.816406 -2.390625 7.546875 -2.390625 C 6.566406 -2.390625 5.660156 -2.546875 4.828125 -2.859375 C 4.003906 -3.179688 3.285156 -3.628906 2.671875 -4.203125 C 2.066406 -4.773438 1.59375 -5.445312 1.25 -6.21875 C 0.90625 -6.988281 0.734375 -7.832031 0.734375 -8.75 Z M 7.984375 -11.21875 C 7.671875 -11.21875 7.375 -11.148438 7.09375 -11.015625 C 6.8125 -10.878906 6.566406 -10.695312 6.359375 -10.46875 C 6.148438 -10.238281 5.984375 -9.972656 5.859375 -9.671875 C 5.734375 -9.378906 5.671875 -9.070312 5.671875 -8.75 C 5.671875 -8.101562 5.894531 -7.554688 6.34375 -7.109375 C 6.800781 -6.671875 7.347656 -6.453125 7.984375 -6.453125 C 8.617188 -6.453125 9.160156 -6.671875 9.609375 -7.109375 C 10.066406 -7.554688 10.296875 -8.101562 10.296875 -8.75 C 10.296875 -9.070312 10.226562 -9.378906 10.09375 -9.671875 C 9.96875 -9.972656 9.800781 -10.238281 9.59375 -10.46875 C 9.382812 -10.695312 9.140625 -10.878906 8.859375 -11.015625 C 8.578125 -11.148438 8.285156 -11.21875 7.984375 -11.21875 Z M 7.984375 -11.21875 "/></g></g></g><g fill="#ffffff" fill-opacity="1"><g transform="translate(268.914064, 39.519642)"><g><path d="M 8.0625 -8.875 C 9.007812 -8.875 9.867188 -8.71875 10.640625 -8.40625 C 11.421875 -8.101562 12.097656 -7.675781 12.671875 -7.125 C 13.242188 -6.570312 13.6875 -5.90625 14 -5.125 C 14.320312 -4.351562 14.484375 -3.507812 14.484375 -2.59375 C 14.484375 -1.601562 14.300781 -0.703125 13.9375 0.109375 C 13.582031 0.921875 13.070312 1.617188 12.40625 2.203125 C 11.738281 2.785156 10.945312 3.238281 10.03125 3.5625 C 9.113281 3.894531 8.101562 4.0625 7 4.0625 C 5.582031 4.0625 4.304688 3.796875 3.171875 3.265625 C 2.035156 2.742188 1.160156 1.988281 0.546875 1 L 3.375 -2.265625 C 3.90625 -1.703125 4.488281 -1.257812 5.125 -0.9375 C 5.769531 -0.625 6.40625 -0.46875 7.03125 -0.46875 C 7.695312 -0.46875 8.21875 -0.644531 8.59375 -1 C 8.976562 -1.363281 9.171875 -1.859375 9.171875 -2.484375 C 9.171875 -3.078125 9 -3.554688 8.65625 -3.921875 C 8.3125 -4.285156 7.859375 -4.46875 7.296875 -4.46875 C 6.921875 -4.46875 6.570312 -4.378906 6.25 -4.203125 C 5.9375 -4.035156 5.695312 -3.804688 5.53125 -3.515625 L 1.09375 -3.515625 L 3.375 -15.546875 L 13.078125 -15.546875 L 13.078125 -10.84375 L 7.109375 -10.84375 L 6.8125 -8.75 C 6.882812 -8.757812 6.984375 -8.773438 7.109375 -8.796875 C 7.203125 -8.816406 7.328125 -8.832031 7.484375 -8.84375 C 7.648438 -8.863281 7.84375 -8.875 8.0625 -8.875 Z M 8.0625 -8.875 "/></g></g></g><g fill="#ffffff" fill-opacity="1"><g transform="translate(284.106761, 39.519642)"><g><path d="M 0.875 0 C 0.875 -0.90625 0.945312 -1.703125 1.09375 -2.390625 C 1.238281 -3.085938 1.472656 -3.710938 1.796875 -4.265625 C 2.117188 -4.816406 2.539062 -5.3125 3.0625 -5.75 C 3.582031 -6.1875 4.222656 -6.613281 4.984375 -7.03125 C 5.960938 -7.550781 6.738281 -7.96875 7.3125 -8.28125 C 7.882812 -8.601562 8.316406 -8.863281 8.609375 -9.0625 C 8.898438 -9.269531 9.082031 -9.441406 9.15625 -9.578125 C 9.238281 -9.710938 9.28125 -9.859375 9.28125 -10.015625 C 9.28125 -10.472656 9.132812 -10.8125 8.84375 -11.03125 C 8.5625 -11.25 8.164062 -11.359375 7.65625 -11.359375 C 7.050781 -11.359375 6.476562 -11.203125 5.9375 -10.890625 C 5.40625 -10.585938 4.851562 -10.085938 4.28125 -9.390625 L 1 -13.234375 C 1.351562 -13.617188 1.800781 -13.96875 2.34375 -14.28125 C 2.882812 -14.601562 3.484375 -14.875 4.140625 -15.09375 C 4.804688 -15.320312 5.507812 -15.5 6.25 -15.625 C 7 -15.757812 7.765625 -15.828125 8.546875 -15.828125 C 10.640625 -15.828125 12.222656 -15.394531 13.296875 -14.53125 C 14.378906 -13.664062 14.921875 -12.460938 14.921875 -10.921875 C 14.921875 -10.359375 14.847656 -9.859375 14.703125 -9.421875 C 14.554688 -8.984375 14.359375 -8.585938 14.109375 -8.234375 C 13.867188 -7.878906 13.578125 -7.554688 13.234375 -7.265625 C 12.890625 -6.972656 12.523438 -6.703125 12.140625 -6.453125 C 11.691406 -6.140625 11.21875 -5.84375 10.71875 -5.5625 C 10.21875 -5.28125 9.722656 -4.96875 9.234375 -4.625 L 15.21875 -4.625 L 15.21875 0 Z M 0.875 0 "/></g></g></g></svg>