<svg width="260" height="58" viewBox="0 0 260 58" fill="none" xmlns="http://www.w3.org/2000/svg">
<path d="M25.8273 14.2488L12.4129 36.5295H24.3669V42.7255H0L13.4769 20.4448H2.27397V14.2488H25.8273Z" fill="white"/>
<path d="M51.2999 33.0455C51.2999 35.7298 50.4167 38.0316 48.6504 39.9509C46.5085 42.2874 43.5114 43.4557 39.6588 43.4557C35.7924 43.4557 32.7882 42.2874 30.6464 39.9509C28.8801 38.0316 27.9969 35.6741 27.9969 32.8786C27.9969 30.3613 28.887 28.129 30.6673 26.1819C32.823 23.8314 35.8897 22.6562 39.8674 22.6562C43.5253 22.6562 46.446 23.8314 48.6295 26.1819C50.4097 28.1012 51.2999 30.3891 51.2999 33.0455ZM44.1859 33.0455C44.1859 31.7938 43.7408 30.7368 42.8507 29.8745C41.9745 28.9983 40.9105 28.5602 39.6588 28.5602C38.2402 28.5602 37.0858 29.0887 36.1957 30.1457C35.4725 30.9941 35.1109 31.9607 35.1109 33.0455C35.1109 34.1443 35.4725 35.1178 36.1957 35.9662C37.0858 37.0232 38.2402 37.5517 39.6588 37.5517C40.9245 37.5517 41.9954 37.1206 42.8716 36.2583C43.7478 35.3821 44.1859 34.3112 44.1859 33.0455Z" fill="white"/>
<path d="M77.753 33.0455C77.753 35.7298 76.8698 38.0316 75.1035 39.9509C72.9617 42.2874 69.9645 43.4557 66.1119 43.4557C62.2455 43.4557 59.2414 42.2874 57.0995 39.9509C55.3332 38.0316 54.45 35.6741 54.45 32.8786C54.45 30.3613 55.3402 28.129 57.1204 26.1819C59.2761 23.8314 62.3429 22.6562 66.3206 22.6562C69.9784 22.6562 72.8991 23.8314 75.0826 26.1819C76.8629 28.1012 77.753 30.3891 77.753 33.0455ZM70.639 33.0455C70.639 31.7938 70.194 30.7368 69.3038 29.8745C68.4276 28.9983 67.3637 28.5602 66.1119 28.5602C64.6933 28.5602 63.539 29.0887 62.6488 30.1457C61.9256 30.9941 61.564 31.9607 61.564 33.0455C61.564 34.1443 61.9256 35.1178 62.6488 35.9662C63.539 37.0232 64.6933 37.5517 66.1119 37.5517C67.3776 37.5517 68.4485 37.1206 69.3247 36.2583C70.2009 35.3821 70.639 34.3112 70.639 33.0455Z" fill="white"/>
<path d="M114.429 42.7255H107.586V33.1498C107.586 31.4809 107.412 30.3404 107.064 29.7284C106.55 28.8244 105.778 28.3724 104.749 28.3724C103.608 28.3724 102.732 28.8661 102.12 29.8536C101.689 30.549 101.473 31.6478 101.473 33.1498V42.7255H94.6304V33.1498C94.6304 31.4809 94.4913 30.396 94.2132 29.8953C93.6569 28.894 92.8015 28.3933 91.6471 28.3933C90.5762 28.3933 89.7417 28.8244 89.1437 29.6867C88.9212 29.9927 88.7612 30.4169 88.6639 30.9593C88.5665 31.4878 88.5178 32.218 88.5178 33.1498V42.7255H81.6751V23.3655H88.5178V25.7438C89.3245 24.9649 90.0616 24.3947 90.7292 24.0331C91.9392 23.3794 93.2883 23.0526 94.7765 23.0526C96.6819 23.0526 98.2674 23.5463 99.533 24.5338C100.173 25.0345 100.785 25.7438 101.369 26.6617C101.897 25.7994 102.488 25.1179 103.142 24.6172C104.519 23.5602 106.091 23.0317 107.857 23.0317C109.303 23.0317 110.59 23.3794 111.716 24.0748C112.926 24.8398 113.719 25.8759 114.095 27.1833C114.317 27.976 114.429 28.9635 114.429 30.1457V42.7255Z" fill="white"/>
<path d="M160.905 42.7255H151.684L144.633 31.7937V42.7255H137.227V14.2487H148.742C152.108 14.2487 154.598 15.2571 156.211 17.2737C157.518 18.901 158.172 20.8133 158.172 23.0108C158.172 25.5282 157.421 27.5379 155.919 29.0399C154.959 29.9996 153.638 30.6672 151.955 31.0427L160.905 42.7255ZM150.474 23.428C150.474 22.4128 150.105 21.5574 149.368 20.862C148.673 20.2083 147.553 19.8815 146.01 19.8815H144.633V26.9955H146.01C147.567 26.9955 148.687 26.6686 149.368 26.0149C150.105 25.3056 150.474 24.4433 150.474 23.428Z" fill="white"/>
<path d="M185.189 42.7255H178.346V40.5767C177.692 41.3973 177.031 41.9953 176.364 42.3708C175.196 43.0245 173.867 43.3513 172.379 43.3513C169.973 43.3513 167.831 42.5238 165.954 40.8688C163.715 38.8938 162.595 36.2791 162.595 33.0246C162.595 29.7145 163.742 27.072 166.037 25.097C167.859 23.5254 169.952 22.7396 172.317 22.7396C173.694 22.7396 174.987 23.0317 176.197 23.6158C176.892 23.9496 177.609 24.499 178.346 25.2639V23.3655H185.189V42.7255ZM178.554 33.0455C178.554 31.8216 178.123 30.7854 177.261 29.937C176.399 29.0747 175.356 28.6436 174.132 28.6436C172.769 28.6436 171.649 29.1582 170.773 30.1874C170.064 31.0218 169.709 31.9746 169.709 33.0455C169.709 34.1164 170.064 35.0691 170.773 35.9036C171.635 36.9328 172.755 37.4474 174.132 37.4474C175.369 37.4474 176.413 37.0232 177.261 36.1748C178.123 35.3264 178.554 34.2833 178.554 33.0455Z" fill="white"/>
<path d="M211.683 42.7255H204.841V40.5767C204.187 41.3973 203.526 41.9953 202.859 42.3708C201.69 43.0245 200.362 43.3513 198.874 43.3513C196.468 43.3513 194.326 42.5238 192.449 40.8688C190.209 38.8938 189.09 36.2791 189.09 33.0246C189.09 29.7145 190.237 27.072 192.532 25.097C194.354 23.5254 196.447 22.7396 198.811 22.7396C200.188 22.7396 201.482 23.0317 202.692 23.6158C203.387 23.9496 204.104 24.499 204.841 25.2639V11.3906H211.683V42.7255ZM205.049 33.0455C205.049 31.8216 204.618 30.7854 203.756 29.937C202.894 29.0747 201.85 28.6436 200.626 28.6436C199.264 28.6436 198.144 29.1582 197.268 30.1874C196.558 31.0218 196.204 31.9746 196.204 33.0455C196.204 34.1164 196.558 35.0691 197.268 35.9036C198.13 36.9328 199.25 37.4474 200.626 37.4474C201.864 37.4474 202.907 37.0232 203.756 36.1748C204.618 35.3264 205.049 34.2833 205.049 33.0455Z" fill="white"/>
<path d="M223.617 15.9177C223.617 17.0025 223.241 17.9205 222.49 18.6715C221.753 19.4086 220.842 19.7772 219.757 19.7772C218.686 19.7772 217.775 19.4017 217.024 18.6506C216.287 17.8996 215.918 16.9886 215.918 15.9177C215.918 14.8468 216.287 13.9428 217.024 13.2056C217.775 12.4546 218.686 12.0791 219.757 12.0791C220.828 12.0791 221.739 12.4546 222.49 13.2056C223.241 13.9428 223.617 14.8468 223.617 15.9177ZM223.178 42.7255H216.336V23.3655H223.178V42.7255Z" fill="white"/>
<path fill-rule="evenodd" clip-rule="evenodd" d="M242.91 2.13628H140.368C132.11 2.13628 125.415 8.83139 125.415 17.0902V40.5893C125.415 48.8481 132.11 55.5432 140.368 55.5432H242.91C251.169 55.5432 257.864 48.8481 257.864 40.5893V17.0902C257.864 8.83139 251.169 2.13628 242.91 2.13628ZM140.368 0C130.93 0 123.278 7.65155 123.278 17.0902V40.5893C123.278 50.0279 130.93 57.6795 140.368 57.6795H242.91C252.348 57.6795 260 50.0279 260 40.5893V17.0902C260 7.65155 252.348 0 242.91 0H140.368Z" fill="white"/>
<path d="M249.319 32.0442C249.319 37.9433 244.536 42.7256 238.637 42.7256C232.738 42.7256 227.956 37.9433 227.956 32.0442C227.956 26.145 232.738 21.3628 238.637 21.3628C244.536 21.3628 249.319 26.145 249.319 32.0442Z" fill="#DA5742"/>
</svg>
