<svg width="122" height="27" viewBox="0 0 122 27" fill="none" xmlns="http://www.w3.org/2000/svg">
<path d="M12.3828 6.66992L6.10352 17.0996H11.6992V20H0.292969L6.60156 9.57031H1.35742V6.66992H12.3828Z" fill="white"/>
<path d="M24.3066 15.4688C24.3066 16.7253 23.8932 17.8027 23.0664 18.7012C22.0638 19.7949 20.6608 20.3418 18.8574 20.3418C17.0475 20.3418 15.6413 19.7949 14.6387 18.7012C13.8118 17.8027 13.3984 16.6992 13.3984 15.3906C13.3984 14.2122 13.8151 13.1673 14.6484 12.2559C15.6576 11.1556 17.0931 10.6055 18.9551 10.6055C20.6673 10.6055 22.0345 11.1556 23.0566 12.2559C23.89 13.1543 24.3066 14.2253 24.3066 15.4688ZM20.9766 15.4688C20.9766 14.8828 20.7682 14.388 20.3516 13.9844C19.9414 13.5742 19.4434 13.3691 18.8574 13.3691C18.1934 13.3691 17.653 13.6165 17.2363 14.1113C16.8978 14.5085 16.7285 14.9609 16.7285 15.4688C16.7285 15.9831 16.8978 16.4388 17.2363 16.8359C17.653 17.3307 18.1934 17.5781 18.8574 17.5781C19.4499 17.5781 19.9512 17.3763 20.3613 16.9727C20.7715 16.5625 20.9766 16.0612 20.9766 15.4688Z" fill="white"/>
<path d="M36.6895 15.4688C36.6895 16.7253 36.276 17.8027 35.4492 18.7012C34.4466 19.7949 33.0436 20.3418 31.2402 20.3418C29.4303 20.3418 28.0241 19.7949 27.0215 18.7012C26.1947 17.8027 25.7812 16.6992 25.7812 15.3906C25.7812 14.2122 26.1979 13.1673 27.0312 12.2559C28.0404 11.1556 29.4759 10.6055 31.3379 10.6055C33.0501 10.6055 34.4173 11.1556 35.4395 12.2559C36.2728 13.1543 36.6895 14.2253 36.6895 15.4688ZM33.3594 15.4688C33.3594 14.8828 33.151 14.388 32.7344 13.9844C32.3242 13.5742 31.8262 13.3691 31.2402 13.3691C30.5762 13.3691 30.0358 13.6165 29.6191 14.1113C29.2806 14.5085 29.1113 14.9609 29.1113 15.4688C29.1113 15.9831 29.2806 16.4388 29.6191 16.8359C30.0358 17.3307 30.5762 17.5781 31.2402 17.5781C31.8327 17.5781 32.334 17.3763 32.7441 16.9727C33.1543 16.5625 33.3594 16.0612 33.3594 15.4688Z" fill="white"/>
<path d="M53.8574 20H50.6543V15.5176C50.6543 14.7363 50.5729 14.2025 50.4102 13.916C50.1693 13.4928 49.8079 13.2812 49.3262 13.2812C48.7923 13.2812 48.3822 13.5124 48.0957 13.9746C47.8939 14.3001 47.793 14.8145 47.793 15.5176V20H44.5898V15.5176C44.5898 14.7363 44.5247 14.2285 44.3945 13.9941C44.1341 13.5254 43.7337 13.291 43.1934 13.291C42.6921 13.291 42.3014 13.4928 42.0215 13.8965C41.9173 14.0397 41.8424 14.2383 41.7969 14.4922C41.7513 14.7396 41.7285 15.0814 41.7285 15.5176V20H38.5254V10.9375H41.7285V12.0508C42.1061 11.6862 42.4512 11.4193 42.7637 11.25C43.3301 10.944 43.9616 10.791 44.6582 10.791C45.5501 10.791 46.2923 11.0221 46.8848 11.4844C47.1842 11.7188 47.4707 12.0508 47.7441 12.4805C47.9915 12.0768 48.2682 11.7578 48.5742 11.5234C49.2188 11.0286 49.9544 10.7812 50.7812 10.7812C51.4583 10.7812 52.0605 10.944 52.5879 11.2695C53.1543 11.6276 53.5254 12.1126 53.7012 12.7246C53.8053 13.0957 53.8574 13.5579 53.8574 14.1113V20Z" fill="white"/>
<path d="M75.6133 20H71.2969L67.9961 14.8828V20H64.5293V6.66992H69.9199C71.4954 6.66992 72.6608 7.14193 73.416 8.08594C74.028 8.84766 74.334 9.74284 74.334 10.7715C74.334 11.9499 73.9824 12.8906 73.2793 13.5938C72.8301 14.043 72.2116 14.3555 71.4238 14.5312L75.6133 20ZM70.7305 10.9668C70.7305 10.4915 70.5579 10.0911 70.2129 9.76562C69.8874 9.45964 69.3633 9.30664 68.6406 9.30664H67.9961V12.6367H68.6406C69.3698 12.6367 69.8939 12.4837 70.2129 12.1777C70.5579 11.8457 70.7305 11.4421 70.7305 10.9668Z" fill="white"/>
<path d="M86.9805 20H83.7773V18.9941C83.4714 19.3783 83.1621 19.6582 82.8496 19.834C82.3027 20.14 81.681 20.293 80.9844 20.293C79.8581 20.293 78.8555 19.9056 77.9766 19.1309C76.9284 18.2064 76.4043 16.9824 76.4043 15.459C76.4043 13.9095 76.9414 12.6725 78.0156 11.748C78.8685 11.0124 79.8483 10.6445 80.9551 10.6445C81.5996 10.6445 82.2051 10.7812 82.7715 11.0547C83.097 11.2109 83.4323 11.4681 83.7773 11.8262V10.9375H86.9805V20ZM83.875 15.4688C83.875 14.8958 83.6732 14.4108 83.2695 14.0137C82.8659 13.61 82.3776 13.4082 81.8047 13.4082C81.1667 13.4082 80.6426 13.6491 80.2324 14.1309C79.9004 14.5215 79.7344 14.9674 79.7344 15.4688C79.7344 15.9701 79.9004 16.416 80.2324 16.8066C80.6361 17.2884 81.1602 17.5293 81.8047 17.5293C82.3841 17.5293 82.8724 17.3307 83.2695 16.9336C83.6732 16.5365 83.875 16.0482 83.875 15.4688Z" fill="white"/>
<path d="M99.3828 20H96.1797V18.9941C95.8737 19.3783 95.5645 19.6582 95.252 19.834C94.7051 20.14 94.0833 20.293 93.3867 20.293C92.2604 20.293 91.2578 19.9056 90.3789 19.1309C89.3307 18.2064 88.8066 16.9824 88.8066 15.459C88.8066 13.9095 89.3438 12.6725 90.418 11.748C91.2708 11.0124 92.2507 10.6445 93.3574 10.6445C94.002 10.6445 94.6074 10.7812 95.1738 11.0547C95.4993 11.2109 95.8346 11.4681 96.1797 11.8262V5.33203H99.3828V20ZM96.2773 15.4688C96.2773 14.8958 96.0755 14.4108 95.6719 14.0137C95.2682 13.61 94.7799 13.4082 94.207 13.4082C93.569 13.4082 93.0449 13.6491 92.6348 14.1309C92.3027 14.5215 92.1367 14.9674 92.1367 15.4688C92.1367 15.9701 92.3027 16.416 92.6348 16.8066C93.0384 17.2884 93.5625 17.5293 94.207 17.5293C94.7865 17.5293 95.2747 17.3307 95.6719 16.9336C96.0755 16.5365 96.2773 16.0482 96.2773 15.4688Z" fill="white"/>
<path d="M104.969 7.45117C104.969 7.95898 104.793 8.38867 104.441 8.74023C104.096 9.08529 103.67 9.25781 103.162 9.25781C102.661 9.25781 102.234 9.08203 101.883 8.73047C101.538 8.37891 101.365 7.95247 101.365 7.45117C101.365 6.94987 101.538 6.52669 101.883 6.18164C102.234 5.83008 102.661 5.6543 103.162 5.6543C103.663 5.6543 104.09 5.83008 104.441 6.18164C104.793 6.52669 104.969 6.94987 104.969 7.45117ZM104.764 20H101.561V10.9375H104.764V20Z" fill="white"/>
<path fill-rule="evenodd" clip-rule="evenodd" d="M114 1H66C62.134 1 59 4.13401 59 8V19C59 22.866 62.134 26 66 26H114C117.866 26 121 22.866 121 19V8C121 4.13401 117.866 1 114 1ZM66 0C61.5817 0 58 3.58172 58 8V19C58 23.4183 61.5817 27 66 27H114C118.418 27 122 23.4183 122 19V8C122 3.58172 118.418 0 114 0H66Z" fill="white"/>
<path d="M117 15C117 17.7614 114.761 20 112 20C109.239 20 107 17.7614 107 15C107 12.2386 109.239 10 112 10C114.761 10 117 12.2386 117 15Z" fill="#DA5742"/>
</svg>
